<svg xmlns="http://www.w3.org/2000/svg" width="583.947" height="246.961" viewBox="0 0 583.947 246.961">
  <g id="Grupo_86" data-name="Grupo 86" transform="translate(-338.737 -276.088)">
    <g id="Grupo_84" data-name="Grupo 84" transform="matrix(0.848, 0.53, -0.53, 0.848, 342.938, -179.577)">
      <g id="Grupo_83" data-name="Grupo 83" transform="translate(238.443 322.1)">
        <g id="Grupo_82" data-name="Grupo 82" transform="translate(0 111.724) rotate(-47)">
          <path id="Caminho_201" data-name="Caminho 201" d="M47.068,146.39a.97.97,0,0,0,1-.756C59.371,94.2,18.531,46.22,13.836,40.918,10.889,37.585,1.362,25.93,2.518,15.818A13.145,13.145,0,0,1,8.912,6.073a21.751,21.751,0,0,1,13.315-3.5c10.706.6,22.433,8.23,33.017,21.491C70.043,42.6,77.817,83,71.561,108.824a143.473,143.473,0,0,1-7.483,22.531,39.414,39.414,0,0,1-11.244,14.961,3.163,3.163,0,0,0-1.09,1.284,3.023,3.023,0,0,0,2.3,0,6.951,6.951,0,0,0,1.95-1.235A35.359,35.359,0,0,0,65.6,132.935a144.8,144.8,0,0,0,7.919-23.566C80.014,82.562,72.2,42.13,56.8,22.841,45.825,9.088,33.559,1.169,22.264.539A23.626,23.626,0,0,0,7.78,4.364,14.973,14.973,0,0,0,.521,15.514C-.734,26.471,9.264,38.728,12.358,42.223c4.626,5.222,44.831,52.461,33.748,102.9a1.016,1.016,0,0,0,.133.762,1.069,1.069,0,0,0,.638.466.955.955,0,0,0,.2.031" transform="translate(82.352 1.931)" fill="#1a5610"/>
          <path id="Caminho_202" data-name="Caminho 202" d="M38.99,138.192c-.041.452-.243,1.966.374,2.11.543.123,1.219-.929,1.438-1.288,1.29-2.117,1.429-4.4,2.137-6.685q.944-3.029,1.757-6.1a165.169,165.169,0,0,0,3.678-17.585c2.773-18.164,2.661-37.524-3.762-55.3C34.818,26.261,10.914,3.961,1.376.1A.964.964,0,0,0,1.05.025.965.965,0,0,0,.024.977a1.058,1.058,0,0,0,.662.991c8.141,3.3,32.263,24.97,42.036,52.011q.98,2.716,1.764,5.493c4.858,17.145,4.352,35.325,1.321,52.449a160.426,160.426,0,0,1-4.25,17.982c-.717,2.4-2.324,5.517-2.576,8.291" transform="translate(94.485 10.044)" fill="#1a5610"/>
          <path id="Caminho_203" data-name="Caminho 203" d="M1.08,4.943a.838.838,0,0,0,.186-.007L20.251,2.482a.965.965,0,0,0,.829-1.128,1.058,1.058,0,0,0-.973-.881.857.857,0,0,0-.188.007L.93,2.932A.933.933,0,0,0,.285,3.3a1,1,0,0,0-.18.757,1.055,1.055,0,0,0,.973.881" transform="translate(88.338 19.083)" fill="#1a5610"/>
          <path id="Caminho_204" data-name="Caminho 204" d="M1.22,4.4,21.045,2.5a.984.984,0,0,0,.866-1.1A1.055,1.055,0,0,0,20.93.491L.952,2.392A.905.905,0,0,0,.3,2.728a1.012,1.012,0,0,0-.212.765,1.062,1.062,0,0,0,.981.909Z" transform="translate(98.202 30.486)" fill="#1a5610"/>
          <path id="Caminho_205" data-name="Caminho 205" d="M1.091,5.155a1.048,1.048,0,0,0,.188-.007L21.7,2.513a.966.966,0,0,0,.826-1.129A1.064,1.064,0,0,0,21.363.511L.939,3.144A.97.97,0,0,0,.11,4.276a1.061,1.061,0,0,0,.981.881" transform="translate(104.924 40.441)" fill="#1a5610"/>
          <path id="Caminho_206" data-name="Caminho 206" d="M23.281,2.558A.987.987,0,0,0,24.2,1.506a1.045,1.045,0,0,0-.981-.962L.988,1.52A.964.964,0,0,0,.061,2.566a1.056,1.056,0,0,0,.988.967Z" transform="translate(110.52 51.955)" fill="#1a5610"/>
          <path id="Caminho_207" data-name="Caminho 207" d="M21.913,2.53A1,1,0,0,0,22.857,1.5a1.062,1.062,0,0,0-.985-.982L1,1.024A.964.964,0,0,0,.048,2.048a1.056,1.056,0,0,0,.99.994Z" transform="translate(116.67 63.213)" fill="#1a5610"/>
          <path id="Caminho_208" data-name="Caminho 208" d="M19.82,2.48a1,1,0,0,0,.94-1.033,1.057,1.057,0,0,0-.983-.983L.991.924A.937.937,0,0,0,.044,1.9c0,.02,0,.04,0,.059a1.063,1.063,0,0,0,.984.985Z" transform="translate(122.064 77.09)" fill="#1a5610"/>
          <path id="Caminho_209" data-name="Caminho 209" d="M15.862,2.649a.955.955,0,0,0,.212-.015.965.965,0,0,0,.779-1.162,1.056,1.056,0,0,0-.971-.838L1.034.025a.95.95,0,0,0-.7.259.966.966,0,0,0-.308.71,1.061,1.061,0,0,0,.989,1.048Z" transform="translate(127.549 88.149)" fill="#1a5610"/>
          <path id="Caminho_210" data-name="Caminho 210" d="M12.577,3.87a.937.937,0,0,0,.226-.014.967.967,0,0,0,.779-1.164,1.059,1.059,0,0,0-.867-.828L1.137.033A.975.975,0,0,0,.03.872,1.054,1.054,0,0,0,.91,2.024Z" transform="translate(130.807 101.088)" fill="#1a5610"/>
          <path id="Caminho_211" data-name="Caminho 211" d="M10.826,4.691a.939.939,0,0,0,.226-.015.966.966,0,0,0,.773-1.168,1.058,1.058,0,0,0-.758-.8L1.257.061a1.027,1.027,0,0,0-.21-.036.971.971,0,0,0-1,.745A1.048,1.048,0,0,0,.8,2h0l9.81,2.648a1.044,1.044,0,0,0,.213.036" transform="translate(131.486 111.848)" fill="#1a5610"/>
          <path id="Caminho_212" data-name="Caminho 212" d="M1.116,6.412A.94.94,0,0,0,1.342,6.4a.8.8,0,0,0,.209-.061L11.382,2.2a.948.948,0,0,0,.523-.543,1.044,1.044,0,0,0-.59-1.322,1.017,1.017,0,0,0-.342-.078.9.9,0,0,0-.427.077L.715,4.472a.981.981,0,0,0-.5,1.318,1.064,1.064,0,0,0,.9.622" transform="translate(141.777 105.088)" fill="#1a5610"/>
          <path id="Caminho_213" data-name="Caminho 213" d="M1.12,6.684A.968.968,0,0,0,1.566,6.6L11.78,2.2A.979.979,0,0,0,12.263.881a1.051,1.051,0,0,0-.885-.614,1.033,1.033,0,0,0-.451.079L.711,4.747A.98.98,0,0,0,.228,6.071a1.058,1.058,0,0,0,.891.613" transform="translate(142.439 90.46)" fill="#1a5610"/>
          <path id="Caminho_214" data-name="Caminho 214" d="M1.131,7.082a.942.942,0,0,0,.226-.015.979.979,0,0,0,.277-.091l9.392-4.813A.988.988,0,0,0,11.422.8a1.032,1.032,0,0,0-1.37-.449L.661,5.169A.987.987,0,0,0,.268,6.526a1.057,1.057,0,0,0,.865.554" transform="translate(141.606 76.89)" fill="#1a5610"/>
          <path id="Caminho_215" data-name="Caminho 215" d="M1.183,9.287a.882.882,0,0,0,.226-.014.952.952,0,0,0,.421-.182l9.216-7.026A1,1,0,0,0,11.206.653,1.016,1.016,0,0,0,9.793.44l0,0L.571,7.469A1,1,0,0,0,.414,8.88a1.049,1.049,0,0,0,.767.408" transform="translate(138.767 61.415)" fill="#1a5610"/>
          <path id="Caminho_216" data-name="Caminho 216" d="M1.268,13.17a.963.963,0,0,0,.93-.55l5.257-11A1.041,1.041,0,0,0,6.977.264a1.007,1.007,0,0,0-.4-.11A.982.982,0,0,0,5.636.7L.38,11.7a1.036,1.036,0,0,0,.478,1.357.992.992,0,0,0,.41.113" transform="translate(112.566 13.58)" fill="#1a5610"/>
          <path id="Caminho_217" data-name="Caminho 217" d="M1.321,15.453a.946.946,0,0,0,.226-.014.947.947,0,0,0,.685-.5L9.177,1.695A1.038,1.038,0,0,0,8.74.325,1,1,0,0,0,8.3.2a.974.974,0,0,0-.917.513L.446,13.948a1.039,1.039,0,0,0,.437,1.37,1.011,1.011,0,0,0,.444.13" transform="translate(121.908 22.4)" fill="#1a5610"/>
          <path id="Caminho_218" data-name="Caminho 218" d="M1.29,13.807a1,1,0,0,0,.226-.014.972.972,0,0,0,.592-.352L11.182,1.893A1.021,1.021,0,0,0,10.994.472,1,1,0,0,0,10.4.244a.977.977,0,0,0-.822.365L.5,12.155a1.024,1.024,0,0,0,.191,1.421,1.008,1.008,0,0,0,.591.231" transform="translate(128.744 34.107)" fill="#1a5610"/>
          <path id="Caminho_219" data-name="Caminho 219" d="M1.262,12.456a1,1,0,0,0,.226-.014.962.962,0,0,0,.539-.293L11.443,1.961A1.013,1.013,0,0,0,11.371.536l0,0a1.031,1.031,0,0,0-.651-.279.97.97,0,0,0-.768.3L.53,10.744A1.015,1.015,0,0,0,.6,12.172a1.048,1.048,0,0,0,.665.288" transform="translate(134.737 46.912)" fill="#1a5610"/>
          <path id="Caminho_220" data-name="Caminho 220" d="M1.173,8.955a.962.962,0,0,0,.968-.635L4.614,1.466A1.045,1.045,0,0,0,4,.157a1.032,1.032,0,0,0-.319-.07A.958.958,0,0,0,2.715.72L.241,7.573A1.048,1.048,0,0,0,.865,8.884a1,1,0,0,0,.308.068" transform="translate(101.004 7.218)" fill="#1a5610"/>
          <path id="Caminho_228" data-name="Caminho 228" d="M72.316,31.454c1.8-1.357,3.547-2.789,5.2-4.315a42.554,42.554,0,0,0,7.662-9.848,2.028,2.028,0,0,0,.378-1.025.788.788,0,0,0-.645-.808,1.013,1.013,0,0,0-.721.4,28.585,28.585,0,0,0-2.44,3.107C76.876,25.67,70.1,30.842,63,35.078a77.012,77.012,0,0,1-24.08,9.672,48.754,48.754,0,0,1-12.3.967C13.725,45,5.571,36.341,3.451,28.6c-2.088-7.634,1.04-14.783,8.284-19.021,17.284-10.162,43.882-8.15,64.671,4.9a1.1,1.1,0,0,0,1.532-.34,1.149,1.149,0,0,0-.4-1.55C56.065-.9,28.514-2.932,10.545,7.628,2.375,12.437-1.075,20.463,1.3,29.113,4.149,39.538,14.541,47.286,26.58,47.956a58.8,58.8,0,0,0,22.5-3.658,83.435,83.435,0,0,0,18.4-9.45c1.647-1.083,3.265-2.208,4.838-3.393" transform="translate(3.949 168.939)" fill="#1a5610"/>
          <path id="Caminho_229" data-name="Caminho 229" d="M66.531,7.2c.057-.018.114-.032.17-.047a42.323,42.323,0,0,0,5.269-1.8,24.949,24.949,0,0,0,4.777-2.439c.364-.265.756-.65.651-1.1a5.105,5.105,0,0,0-2.233.485c-.5.187-1,.371-1.511.548A81.493,81.493,0,0,1,47.6,7.4c-7.32.038-14.628.414-21.906.981Q17.016,9.062,8.38,10.1c-2.4.287-4.809.59-7.2.936a1.076,1.076,0,0,0-.87,1.293,1.173,1.173,0,0,0,1.278.929L2.727,13.1c3.725-.513,7.451-.956,11.2-1.356,6.3-.675,12.625-1.219,18.966-1.593,4.516-.265,9.026-.493,13.553-.364a65.3,65.3,0,0,0,13.619-1.09q3.268-.6,6.466-1.492" transform="translate(10.39 181.301)" fill="#1a5610"/>
          <path id="Caminho_230" data-name="Caminho 230" d="M2.119,15.484a1.035,1.035,0,0,0,.306-.335l7.59-13.236A1.14,1.14,0,0,0,9.6.378L9.59.371A1.106,1.106,0,0,0,8.069.74L.479,13.973a1.15,1.15,0,0,0,.439,1.539,1.108,1.108,0,0,0,1.2-.033" transform="translate(16.844 190.413)" fill="#1a5610"/>
          <path id="Caminho_231" data-name="Caminho 231" d="M2.21,19.006a1.054,1.054,0,0,0,.345-.411L10.474,1.854A1.152,1.152,0,0,0,9.934.345,1.085,1.085,0,0,0,8.448.83L.527,17.57a1.154,1.154,0,0,0,.541,1.509,1.107,1.107,0,0,0,1.141-.072" transform="translate(31.834 189.231)" fill="#1a5610"/>
          <path id="Caminho_232" data-name="Caminho 232" d="M2.212,19.1a1.067,1.067,0,0,0,.345-.412L10.519,1.855A1.156,1.156,0,0,0,9.976.345,1.087,1.087,0,0,0,8.491.832L.529,17.665a1.156,1.156,0,0,0,.541,1.51A1.11,1.11,0,0,0,2.211,19.1" transform="translate(46.669 188.497)" fill="#1a5610"/>
          <path id="Caminho_233" data-name="Caminho 233" d="M2.049,12.287a1.049,1.049,0,0,0,.345-.412L7.154,1.812A1.152,1.152,0,0,0,6.666.287a1.089,1.089,0,0,0-1.5.431L5.128.788.37,10.852a1.156,1.156,0,0,0,.541,1.509,1.109,1.109,0,0,0,1.141-.074" transform="translate(61.046 188.69)" fill="#1a5610"/>
          <path id="Caminho_234" data-name="Caminho 234" d="M10.143,13.372l.009-.007a1.108,1.108,0,0,0,.217-1.562L2.04.5A1.139,1.139,0,0,0,.478.223L.469.229A1.107,1.107,0,0,0,.253,1.79h0l8.328,11.3a1.136,1.136,0,0,0,1.561.28" transform="translate(24.282 178.547)" fill="#1a5610"/>
          <path id="Caminho_235" data-name="Caminho 235" d="M10.721,13.537l.032-.023a1.108,1.108,0,0,0,.171-1.567v0L2.015.5A1.084,1.084,0,0,0,.521.209a.633.633,0,0,0-.077.06A1.109,1.109,0,0,0,.274,1.837L9.18,13.283a1.125,1.125,0,0,0,1.538.256" transform="translate(39.293 177.402)" fill="#1a5610"/>
          <path id="Caminho_236" data-name="Caminho 236" d="M9.5,12.507H9.5a1.108,1.108,0,0,0,.219-1.563h0L2.039.5A1.137,1.137,0,0,0,.478.223H.472A1.107,1.107,0,0,0,.252,1.784l0,0,7.683,10.44a1.135,1.135,0,0,0,1.56.28" transform="translate(53.223 178.254)" fill="#1a5610"/>
          <path id="Caminho_237" data-name="Caminho 237" d="M107.286,119.394c-14.594,1.667-42.344,10.477-70.492-11.164S-4.033,25.983,1.912,7.5C6.064-5.412,80.926-.463,108.436,26.126s30.767,75.531-1.151,93.267" transform="translate(6.783 62.966)" fill="#2ab54e"/>
          <path id="Caminho_238" data-name="Caminho 238" d="M100.239,100.959a1.194,1.194,0,0,0,.281-1.16C86.313,50.062,29.422,9.066,1.57.088A1.164,1.164,0,0,0,.075.868,1.26,1.26,0,0,0,.909,2.4c27.392,8.83,83.319,49.126,97.283,97.987a1.258,1.258,0,0,0,1.5.885h0a1.136,1.136,0,0,0,.548-.312" transform="translate(20.22 71.349)" fill="#fff"/>
          <path id="Caminho_239" data-name="Caminho 239" d="M38.745,2.967a1.224,1.224,0,0,0-.059-1.722A1.24,1.24,0,0,0,37.371.971C28.91,4.408,13.479,6.626,1.552,3.982A1.162,1.162,0,0,0,.14,4.905a1.267,1.267,0,0,0,.975,1.451c12.4,2.752,28.442.446,37.235-3.12a1.167,1.167,0,0,0,.395-.264" transform="translate(20.144 90.478)" fill="#fff"/>
          <path id="Caminho_240" data-name="Caminho 240" d="M2.495,25.08a1.161,1.161,0,0,0,.379-.447c4.245-8.926,5.265-16.194,3.3-23.573A1.262,1.262,0,0,0,4.69.147,1.169,1.169,0,0,0,3.835,1.6c1.8,6.779.822,13.535-3.158,21.913a1.253,1.253,0,0,0,.583,1.639,1.2,1.2,0,0,0,1.234-.075" transform="translate(67.116 76.273)" fill="#fff"/>
          <path id="Caminho_241" data-name="Caminho 241" d="M55.288,3.357a1.244,1.244,0,0,0-1.508-1.932c-14.2,7.936-35.316,14.685-52,9.817a1.167,1.167,0,0,0-1.462.846,1.267,1.267,0,0,0,.866,1.489c14.774,4.311,34.9.563,53.834-10.023a1.139,1.139,0,0,0,.262-.2" transform="translate(25.962 108.773)" fill="#fff"/>
          <path id="Caminho_242" data-name="Caminho 242" d="M2.785,36.759a1.122,1.122,0,0,0,.349-.421c6.18-12.521,9.251-23.578,9.654-34.8A1.274,1.274,0,0,0,11.58.272a1.161,1.161,0,0,0-1.219,1.093C9.975,12.232,6.985,22.981.958,35.195a1.251,1.251,0,0,0,.558,1.645,1.2,1.2,0,0,0,1.268-.08" transform="translate(91.959 89.363)" fill="#fff"/>
          <path id="Caminho_243" data-name="Caminho 243" d="M62.457,3.53A1.243,1.243,0,0,0,60.949,1.6C41.425,12.52,22.583,16.618,1.659,14.5a1.161,1.161,0,0,0-1.29,1.085A1.271,1.271,0,0,0,1.5,16.92c21.145,2.138,41-2.177,60.692-13.189a1.2,1.2,0,0,0,.261-.2" transform="translate(41.728 135.361)" fill="#fff"/>
        </g>
      </g>
    </g>
    <g id="Grupo_85" data-name="Grupo 85" transform="matrix(-0.848, 0.53, -0.53, -0.848, 1018.7, 439.918)">
      <g id="Grupo_83-2" data-name="Grupo 83" transform="translate(0 0)">
        <g id="Grupo_82-2" data-name="Grupo 82" transform="translate(156.876 0) rotate(47)">
          <path id="Caminho_201-2" data-name="Caminho 201" d="M46.655,1.439a.97.97,0,0,1,1,.756c11.3,51.433-29.54,99.414-34.235,104.716C10.476,110.245.949,121.9,2.1,132.011A13.145,13.145,0,0,0,8.5,141.756a21.751,21.751,0,0,0,13.315,3.5c10.706-.6,22.433-8.23,33.017-21.491C69.63,105.232,77.4,64.832,71.148,39.005a143.473,143.473,0,0,0-7.483-22.531A39.414,39.414,0,0,0,52.421,1.513,3.163,3.163,0,0,1,51.33.228a3.023,3.023,0,0,1,2.3,0,6.951,6.951,0,0,1,1.95,1.235,35.359,35.359,0,0,1,9.609,13.434A144.8,144.8,0,0,1,73.1,38.46c6.5,26.807-1.315,67.239-16.72,86.529-10.973,13.752-23.239,21.672-34.534,22.3a23.626,23.626,0,0,1-14.484-3.825A14.973,14.973,0,0,1,.108,132.315c-1.255-10.957,8.743-23.214,11.837-26.709,4.626-5.222,44.831-52.461,33.748-102.9a1.016,1.016,0,0,1,.133-.762,1.069,1.069,0,0,1,.638-.466.955.955,0,0,1,.2-.031" transform="translate(78.253 67.166)" fill="#1a5610"/>
          <path id="Caminho_202-2" data-name="Caminho 202" d="M38.966,2.12c-.041-.452-.243-1.966.374-2.11.543-.123,1.219.929,1.438,1.288,1.29,2.117,1.429,4.4,2.137,6.685q.944,3.029,1.757,6.1A165.169,165.169,0,0,1,48.35,31.664c2.773,18.164,2.661,37.524-3.762,55.3-9.793,27.091-33.7,49.39-43.234,53.255a.964.964,0,0,1-.326.072A.965.965,0,0,1,0,139.335a1.058,1.058,0,0,1,.662-.991c8.141-3.3,32.263-24.97,42.036-52.011q.98-2.716,1.764-5.493C49.32,63.7,48.814,45.515,45.783,28.391a160.426,160.426,0,0,0-4.25-17.982c-.717-2.4-2.324-5.517-2.576-8.291" transform="translate(89.997 66.571)" fill="#1a5610"/>
          <path id="Caminho_203-2" data-name="Caminho 203" d="M.988,0a.838.838,0,0,1,.186.007L20.16,2.464a.965.965,0,0,1,.829,1.128,1.058,1.058,0,0,1-.973.881.857.857,0,0,1-.188-.007L.838,2.014a.933.933,0,0,1-.645-.372A1,1,0,0,1,.013.884,1.055,1.055,0,0,1,.986,0" transform="translate(83.918 192.898)" fill="#1a5610"/>
          <path id="Caminho_204-2" data-name="Caminho 204" d="M1.142.006,20.966,1.9A.984.984,0,0,1,21.833,3a1.055,1.055,0,0,1-.981.913L.873,2.011A.905.905,0,0,1,.22,1.675,1.012,1.012,0,0,1,.009.909,1.062,1.062,0,0,1,.99,0Z" transform="translate(93.77 182.038)" fill="#1a5610"/>
          <path id="Caminho_205-2" data-name="Caminho 205" d="M.995,0a1.048,1.048,0,0,1,.188.007L21.606,2.644a.966.966,0,0,1,.826,1.129,1.064,1.064,0,0,1-1.166.873L.842,2.013A.97.97,0,0,1,.014.881,1.061,1.061,0,0,1,.995,0" transform="translate(100.509 171.328)" fill="#1a5610"/>
          <path id="Caminho_206-2" data-name="Caminho 206" d="M23.222.976a.987.987,0,0,1,.919,1.052,1.045,1.045,0,0,1-.981.962L.929,2.014A.964.964,0,0,1,0,.967,1.056,1.056,0,0,1,.991,0Z" transform="translate(106.068 161.438)" fill="#1a5610"/>
          <path id="Caminho_207-2" data-name="Caminho 207" d="M21.866.512a1,1,0,0,1,.944,1.035,1.062,1.062,0,0,1-.985.982L.953,2.018A.964.964,0,0,1,0,.994,1.056,1.056,0,0,1,.991,0Z" transform="translate(112.206 150.672)" fill="#1a5610"/>
          <path id="Caminho_208-2" data-name="Caminho 208" d="M19.776.464a1,1,0,0,1,.94,1.033,1.057,1.057,0,0,1-.983.983L.947,2.019A.937.937,0,0,1,0,1.045c0-.02,0-.04,0-.059A1.063,1.063,0,0,1,.989,0Z" transform="translate(117.597 136.893)" fill="#1a5610"/>
          <path id="Caminho_209-2" data-name="Caminho 209" d="M15.838,0a.955.955,0,0,1,.212.015.965.965,0,0,1,.779,1.162,1.056,1.056,0,0,1-.971.838L1.01,2.625a.95.95,0,0,1-.7-.259A.966.966,0,0,1,0,1.656,1.061,1.061,0,0,1,.989.608Z" transform="translate(123.061 126.127)" fill="#1a5610"/>
          <path id="Caminho_210-2" data-name="Caminho 210" d="M12.553,0a.937.937,0,0,1,.226.014.967.967,0,0,1,.779,1.164,1.059,1.059,0,0,1-.867.828L1.114,3.839A.975.975,0,0,1,.007,3a1.054,1.054,0,0,1,.88-1.151Z" transform="translate(126.319 111.966)" fill="#1a5610"/>
          <path id="Caminho_211-2" data-name="Caminho 211" d="M10.8,0a.939.939,0,0,1,.226.015A.966.966,0,0,1,11.8,1.184a1.058,1.058,0,0,1-.758.8L1.234,4.632a1.027,1.027,0,0,1-.21.036.971.971,0,0,1-1-.745A1.048,1.048,0,0,1,.778,2.688h0L10.592.038A1.044,1.044,0,0,1,10.805,0" transform="translate(126.999 100.386)" fill="#1a5610"/>
          <path id="Caminho_212-2" data-name="Caminho 212" d="M.99,0a.94.94,0,0,1,.226.015.8.8,0,0,1,.209.061l9.831,4.136a.948.948,0,0,1,.523.543,1.044,1.044,0,0,1-.59,1.322,1.017,1.017,0,0,1-.342.078.9.9,0,0,1-.427-.077L.589,1.941A.981.981,0,0,1,.091.623,1.064,1.064,0,0,1,.988,0" transform="translate(137.392 105.425)" fill="#1a5610"/>
          <path id="Caminho_213-2" data-name="Caminho 213" d="M.988,0a.968.968,0,0,1,.445.081l10.214,4.4A.979.979,0,0,1,12.131,5.8a1.051,1.051,0,0,1-.885.614,1.033,1.033,0,0,1-.451-.079L.579,1.938A.98.98,0,0,1,.1.614,1.058,1.058,0,0,1,.987,0" transform="translate(138.06 119.782)" fill="#1a5610"/>
          <path id="Caminho_214-2" data-name="Caminho 214" d="M.99,0a.942.942,0,0,1,.226.015.979.979,0,0,1,.277.091l9.392,4.813a.988.988,0,0,1,.4,1.358,1.032,1.032,0,0,1-1.37.449L.519,1.914A.987.987,0,0,1,.126.557,1.057,1.057,0,0,1,.991,0" transform="translate(137.236 132.953)" fill="#1a5610"/>
          <path id="Caminho_215-2" data-name="Caminho 215" d="M.99,0a.882.882,0,0,1,.226.014A.952.952,0,0,1,1.637.2l9.216,7.026a1,1,0,0,1,.159,1.412A1.016,1.016,0,0,1,9.6,8.848l0,0L.378,1.82A1,1,0,0,1,.221.409,1.049,1.049,0,0,1,.988,0" transform="translate(134.449 146.223)" fill="#1a5610"/>
          <path id="Caminho_216-2" data-name="Caminho 216" d="M.985,0a.963.963,0,0,1,.93.55l5.257,11a1.041,1.041,0,0,1-.478,1.361,1.007,1.007,0,0,1-.4.11.982.982,0,0,1-.936-.543L.1,1.476A1.036,1.036,0,0,1,.575.119.992.992,0,0,1,.985.006" transform="translate(108.338 190.174)" fill="#1a5610"/>
          <path id="Caminho_217-2" data-name="Caminho 217" d="M.984,0A.946.946,0,0,1,1.21.016a.947.947,0,0,1,.685.5L8.84,13.76A1.038,1.038,0,0,1,8.4,15.13a1,1,0,0,1-.439.13.974.974,0,0,1-.917-.513L.109,1.507A1.039,1.039,0,0,1,.545.137,1.011,1.011,0,0,1,.989.007" transform="translate(117.733 179.072)" fill="#1a5610"/>
          <path id="Caminho_218-2" data-name="Caminho 218" d="M.991,0a1,1,0,0,1,.226.014.972.972,0,0,1,.592.352l9.074,11.548a1.021,1.021,0,0,1-.188,1.421,1,1,0,0,1-.592.228.977.977,0,0,1-.822-.365L.205,1.654A1.024,1.024,0,0,1,.4.233,1.008,1.008,0,0,1,.987,0" transform="translate(124.531 169.011)" fill="#1a5610"/>
          <path id="Caminho_219-2" data-name="Caminho 219" d="M.995,0a1,1,0,0,1,.226.014A.962.962,0,0,1,1.76.311L11.176,10.5a1.013,1.013,0,0,1-.072,1.425l0,0a1.031,1.031,0,0,1-.651.279.97.97,0,0,1-.768-.3L.263,1.716A1.015,1.015,0,0,1,.328.288,1.048,1.048,0,0,1,.994,0" transform="translate(130.493 157.554)" fill="#1a5610"/>
          <path id="Caminho_220-2" data-name="Caminho 220" d="M.988,0a.962.962,0,0,1,.968.635L4.429,7.49A1.045,1.045,0,0,1,3.817,8.8a1.032,1.032,0,0,1-.319.07.958.958,0,0,1-.968-.633L.056,1.383A1.048,1.048,0,0,1,.68.072,1,1,0,0,1,.988,0" transform="translate(96.678 200.752)" fill="#1a5610"/>
          <path id="Caminho_228-2" data-name="Caminho 228" d="M71.754,16.533c1.8,1.357,3.547,2.789,5.2,4.315A42.554,42.554,0,0,1,84.62,30.7,2.028,2.028,0,0,1,85,31.722a.788.788,0,0,1-.645.808,1.013,1.013,0,0,1-.721-.4,28.585,28.585,0,0,1-2.44-3.107C76.314,22.318,69.533,17.145,62.441,12.91a77.012,77.012,0,0,0-24.08-9.672,48.754,48.754,0,0,0-12.3-.967c-12.894.717-21.048,9.376-23.168,17.12C.8,27.025,3.929,34.174,11.173,38.412c17.284,10.162,43.882,8.15,64.671-4.9a1.1,1.1,0,0,1,1.532.34,1.149,1.149,0,0,1-.4,1.55C55.5,48.883,27.952,50.919,9.983,40.36,1.813,35.55-1.637,27.524.734,18.875,3.587,8.449,13.979.7,26.018.032a58.8,58.8,0,0,1,22.5,3.658,83.435,83.435,0,0,1,18.4,9.45c1.647,1.083,3.265,2.208,4.838,3.393" transform="translate(0 0)" fill="#1a5610"/>
          <path id="Caminho_229-2" data-name="Caminho 229" d="M66.247,6.068c.057.018.114.032.17.047a42.323,42.323,0,0,1,5.269,1.8,24.949,24.949,0,0,1,4.777,2.439c.364.265.756.65.651,1.1a5.105,5.105,0,0,1-2.233-.485c-.5-.187-1-.371-1.511-.548A81.493,81.493,0,0,0,47.317,5.862C40,5.824,32.689,5.449,25.41,4.881Q16.733,4.2,8.1,3.166c-2.4-.287-4.809-.59-7.2-.936A1.076,1.076,0,0,1,.023.937,1.173,1.173,0,0,1,1.3.009L2.444.171c3.725.513,7.451.956,11.2,1.356,6.3.675,12.625,1.219,18.966,1.593,4.516.265,9.026.493,13.553.364a65.3,65.3,0,0,1,13.619,1.09q3.268.6,6.466,1.492" transform="translate(6.162 22.358)" fill="#1a5610"/>
          <path id="Caminho_230-2" data-name="Caminho 230" d="M1.779.189a1.035,1.035,0,0,1,.306.335l7.59,13.236a1.14,1.14,0,0,1-.413,1.535L9.25,15.3a1.106,1.106,0,0,1-1.521-.368L.139,1.7A1.15,1.15,0,0,1,.578.161a1.108,1.108,0,0,1,1.2.033" transform="translate(12.672 10.841)" fill="#1a5610"/>
          <path id="Caminho_231-2" data-name="Caminho 231" d="M1.788.2a1.054,1.054,0,0,1,.345.411L10.052,17.35a1.152,1.152,0,0,1-.54,1.508,1.085,1.085,0,0,1-1.486-.485L.105,1.633A1.154,1.154,0,0,1,.646.124,1.107,1.107,0,0,1,1.787.2" transform="translate(27.745 8.492)" fill="#1a5610"/>
          <path id="Caminho_232-2" data-name="Caminho 232" d="M1.788.2a1.067,1.067,0,0,1,.345.412l7.961,16.835a1.156,1.156,0,0,1-.542,1.509,1.087,1.087,0,0,1-1.486-.487L.105,1.634A1.156,1.156,0,0,1,.646.123,1.11,1.11,0,0,1,1.787.2" transform="translate(42.582 9.131)" fill="#1a5610"/>
          <path id="Caminho_233-2" data-name="Caminho 233" d="M1.784.2a1.049,1.049,0,0,1,.345.412l4.76,10.063A1.152,1.152,0,0,1,6.4,12.2a1.089,1.089,0,0,1-1.5-.431L4.863,11.7.1,1.632A1.156,1.156,0,0,1,.646.123,1.109,1.109,0,0,1,1.786.2" transform="translate(56.8 15.752)" fill="#1a5610"/>
          <path id="Caminho_234-2" data-name="Caminho 234" d="M10.117.2,10.126.2a1.108,1.108,0,0,1,.217,1.562l-8.329,11.3a1.139,1.139,0,0,1-1.561.28l-.009-.007a1.107,1.107,0,0,1-.216-1.561h0L8.556.478A1.136,1.136,0,0,1,10.118.2" transform="translate(19.797 24.811)" fill="#1a5610"/>
          <path id="Caminho_235-2" data-name="Caminho 235" d="M10.695.2l.032.023A1.108,1.108,0,0,1,10.9,1.791v0L1.989,13.236a1.084,1.084,0,0,1-1.494.293.633.633,0,0,1-.077-.06A1.109,1.109,0,0,1,.247,11.9L9.153.455A1.125,1.125,0,0,1,10.691.2" transform="translate(34.809 25.787)" fill="#1a5610"/>
          <path id="Caminho_236-2" data-name="Caminho 236" d="M9.471.2h.007A1.108,1.108,0,0,1,9.7,1.76h0L2.013,12.2a1.137,1.137,0,0,1-1.56.28H.446A1.107,1.107,0,0,1,.226,10.92l0,0L7.911.478A1.135,1.135,0,0,1,9.471.2" transform="translate(48.738 25.968)" fill="#1a5610"/>
          <path id="Caminho_237-2" data-name="Caminho 237" d="M106.811,3.181C92.217,1.514,64.466-7.3,36.318,14.345S-4.509,96.593,1.436,115.076c4.152,12.912,79.015,7.962,106.524-18.626s30.767-75.531-1.151-93.267" transform="translate(2.747 31.385)" fill="#2ab54e"/>
          <path id="Caminho_238-2" data-name="Caminho 238" d="M100.21.347a1.194,1.194,0,0,1,.281,1.16c-14.207,49.737-71.1,90.733-98.95,99.711a1.164,1.164,0,0,1-1.495-.78,1.26,1.26,0,0,1,.834-1.53C28.272,90.079,84.2,49.783,98.163.922a1.258,1.258,0,0,1,1.5-.885h0a1.136,1.136,0,0,1,.548.312" transform="translate(15.737 44.271)" fill="#fff"/>
          <path id="Caminho_239-2" data-name="Caminho 239" d="M38.625,4.6a1.224,1.224,0,0,1-.059,1.722,1.24,1.24,0,0,1-1.316.273C28.789,3.162,13.358.944,1.432,3.588A1.162,1.162,0,0,1,.02,2.665,1.267,1.267,0,0,1,.995,1.215C13.4-1.538,29.437.768,38.23,4.334a1.167,1.167,0,0,1,.395.264" transform="translate(15.753 118.878)" fill="#fff"/>
          <path id="Caminho_240-2" data-name="Caminho 240" d="M1.933.21a1.161,1.161,0,0,1,.379.447c4.245,8.926,5.265,16.194,3.3,23.573a1.262,1.262,0,0,1-1.485.913,1.169,1.169,0,0,1-.855-1.456C5.075,16.908,4.1,10.153.115,1.774A1.253,1.253,0,0,1,.7.135,1.2,1.2,0,0,1,1.933.21" transform="translate(63.167 115.363)" fill="#fff"/>
          <path id="Caminho_241-2" data-name="Caminho 241" d="M55,11.975a1.244,1.244,0,0,1-1.508,1.932C39.293,5.97,18.175-.779,1.5,4.089A1.167,1.167,0,0,1,.033,3.243,1.267,1.267,0,0,1,.9,1.754C15.673-2.557,35.8,1.19,54.733,11.777a1.139,1.139,0,0,1,.262.2" transform="translate(21.74 92.822)" fill="#fff"/>
          <path id="Caminho_242-2" data-name="Caminho 242" d="M1.95.224A1.122,1.122,0,0,1,2.3.645c6.18,12.521,9.251,23.578,9.654,34.8a1.274,1.274,0,0,1-1.208,1.269,1.161,1.161,0,0,1-1.219-1.093C9.14,24.751,6.15,14,.122,1.788A1.251,1.251,0,0,1,.681.143a1.2,1.2,0,0,1,1.268.08" transform="translate(88.283 90.581)" fill="#fff"/>
          <path id="Caminho_243-2" data-name="Caminho 243" d="M62.09,13.92a1.243,1.243,0,0,1-1.508,1.933C41.059,4.93,22.216.832,1.292,2.949A1.161,1.161,0,0,1,0,1.863,1.271,1.271,0,0,1,1.136.53c21.145-2.138,41,2.177,60.692,13.189a1.2,1.2,0,0,1,.261.2" transform="translate(37.583 64.116)" fill="#fff"/>
        </g>
      </g>
    </g>
  </g>
</svg>
