<svg xmlns="http://www.w3.org/2000/svg" width="30" height="54" viewBox="0 0 30 54">
  <g id="Grupo_90" data-name="Grupo 90" transform="translate(-832 255.91)">
    <path id="Caminho_165" data-name="Caminho 165" d="M21.794,67.287l-.044,0V75.8a4.255,4.255,0,1,0,.044-8.511" transform="translate(825.251 -277.709)" fill="#989c9f"/>
    <path id="Caminho_166" data-name="Caminho 166" d="M15.52,71.511A4.309,4.309,0,0,0,19.8,75.8h.012V67.29a4.27,4.27,0,0,0-4.3,4.221" transform="translate(827.184 -277.71)" fill="#bfc1c3"/>
    <path id="Caminho_161" data-name="Caminho 161" d="M15,.012V6.848a8.444,8.444,0,0,0-8.527,8.358A8.443,8.443,0,0,0,15,23.556V42.223c-.063.062-.111.1-.128.117C14.53,42.051-.048,29.5,0,14.792A14.961,14.961,0,0,1,15,.012" transform="translate(832 -255.914)" fill="#bfc1c3"/>
    <path id="Caminho_163" data-name="Caminho 163" d="M36.748,14.952c-.072,14.07-13.575,26.026-15,27.266V23.552a8.443,8.443,0,0,0,8.527-8.35,8.258,8.258,0,0,0-2.5-5.915,8.619,8.619,0,0,0-6.027-2.443V.008c.032,0,.064-.008.1-.008a14.911,14.911,0,0,1,14.9,14.952" transform="translate(825.252 -255.91)" fill="#989c9f"/>
    <path id="Caminho_162" data-name="Caminho 162" d="M8.221,17.266a8.443,8.443,0,0,0,8.527,8.35v2.536A11,11,0,0,1,5.634,17.266,11.006,11.006,0,0,1,16.748,6.372V8.908a8.444,8.444,0,0,0-8.527,8.358" transform="translate(830.252 -257.975)" fill="#989c9f"/>
    <path id="Caminho_164" data-name="Caminho 164" d="M32.863,17.266a10.719,10.719,0,0,1-3.257,7.695,11.176,11.176,0,0,1-7.858,3.192V25.617a8.443,8.443,0,0,0,8.527-8.35,8.257,8.257,0,0,0-2.5-5.915,8.616,8.616,0,0,0-6.027-2.443V6.372A11.006,11.006,0,0,1,32.863,17.266" transform="translate(825.252 -257.975)" fill="#bfc1c3"/>
  </g>
</svg>
