<svg id="Grupo_59" data-name="Grupo 59" xmlns="http://www.w3.org/2000/svg" xmlns:xlink="http://www.w3.org/1999/xlink" width="691.872" height="738.337" viewBox="0 0 691.872 738.337">
  <defs>
    <clipPath id="clip-path">
      <rect id="Retângulo_43" data-name="Retângulo 43" width="691.872" height="738.337" fill="none"/>
    </clipPath>
    <clipPath id="clip-path-3">
      <rect id="Retângulo_37" data-name="Retângulo 37" width="353.276" height="353.277" transform="translate(180.228)" fill="none"/>
    </clipPath>
    <clipPath id="clip-path-4">
      <rect id="Retângulo_36" data-name="Retângulo 36" width="353.276" height="353.276" transform="translate(180.228 0.001)" fill="none"/>
    </clipPath>
    <clipPath id="clip-path-5">
      <rect id="Retângulo_39" data-name="Retângulo 39" width="161.676" height="161.676" transform="translate(276.029 95.8)" fill="none"/>
    </clipPath>
    <clipPath id="clip-path-6">
      <rect id="Retângulo_38" data-name="Retângulo 38" width="161.676" height="161.676" transform="translate(276.03 95.801)" fill="none"/>
    </clipPath>
    <clipPath id="clip-path-7">
      <rect id="Retângulo_41" data-name="Retângulo 41" width="247.899" height="247.899" transform="translate(232.917 52.689)" fill="none"/>
    </clipPath>
    <clipPath id="clip-path-8">
      <rect id="Retângulo_40" data-name="Retângulo 40" width="247.898" height="247.899" transform="translate(232.917 52.689)" fill="none"/>
    </clipPath>
  </defs>
  <g id="Grupo_78" data-name="Grupo 78" clip-path="url(#clip-path)">
    <g id="Grupo_77" data-name="Grupo 77">
      <g id="Grupo_76" data-name="Grupo 76" clip-path="url(#clip-path)">
        <path id="Caminho_173" data-name="Caminho 173" d="M590.547,679.837c135.1-78,135.1-204.458,0-282.454s-354.129-78-489.224,0-135.1,204.455,0,282.454,354.128,78,489.224,0" transform="translate(0 -59)" fill="#f0f0f0"/>
        <path id="Caminho_174" data-name="Caminho 174" d="M400.719,472.815c23.884,6.794,47.74,6.238,72.26,5.566,19.128-.521,43.184-2.215,59.834,8.89,6.107,4.071,12.138,10.064,11.821,17.4-.314,7.291-6.736,12.7-12.917,16.575-23.6,14.8-51.385,21.586-75.747,35.1-11.611,6.442-22.332,14.345-33.357,21.744C389.2,600.506,355.389,621.875,315.4,626.349c-16.44,1.84-37.6-2.158-51.515-11.1a65.892,65.892,0,0,1-14.522-13.415c-3.664-4.362-6.865-9.767-11.057-13.577-7.714-7.008-14.218-10.11-24.626-10.71s-24.6-5.7-31.92-13.125c-6.059-6.144-9.2-17.328-5.455-27.478,7.159-19.389,27.19-32.507,43.335-44.039a199.764,199.764,0,0,1,57.349-28.737c29.641-9.079,61.894-10.366,91.7-1.847,10.8,3.088,21.218,7.419,32.025,10.493" fill="#e0e0e0"/>
        <g id="Grupo_63" data-name="Grupo 63" opacity="0.05">
          <g id="Grupo_62" data-name="Grupo 62">
            <g id="Grupo_61" data-name="Grupo 61" clip-path="url(#clip-path-3)">
              <g id="Grupo_60" data-name="Grupo 60">
                <g id="Grupo_59-2" data-name="Grupo 59" clip-path="url(#clip-path-4)">
                  <path id="Caminho_175" data-name="Caminho 175" d="M180.228,176.638A176.638,176.638,0,1,0,356.868,0a176.638,176.638,0,0,0-176.64,176.638" fill="#2ab54e"/>
                </g>
              </g>
            </g>
          </g>
        </g>
        <g id="Grupo_68" data-name="Grupo 68" opacity="0.1">
          <g id="Grupo_67" data-name="Grupo 67">
            <g id="Grupo_66" data-name="Grupo 66" clip-path="url(#clip-path-5)">
              <g id="Grupo_65" data-name="Grupo 65">
                <g id="Grupo_64" data-name="Grupo 64" clip-path="url(#clip-path-6)">
                  <path id="Caminho_176" data-name="Caminho 176" d="M276.03,176.638A80.838,80.838,0,1,0,356.867,95.8a80.837,80.837,0,0,0-80.837,80.837" fill="#2ab54e"/>
                </g>
              </g>
            </g>
          </g>
        </g>
        <g id="Grupo_73" data-name="Grupo 73" opacity="0.07">
          <g id="Grupo_72" data-name="Grupo 72">
            <g id="Grupo_71" data-name="Grupo 71" clip-path="url(#clip-path-7)">
              <g id="Grupo_70" data-name="Grupo 70">
                <g id="Grupo_69" data-name="Grupo 69" clip-path="url(#clip-path-8)">
                  <path id="Caminho_177" data-name="Caminho 177" d="M232.917,176.638A123.948,123.948,0,1,0,356.866,52.69,123.949,123.949,0,0,0,232.917,176.638" fill="#2ab54e"/>
                </g>
              </g>
            </g>
          </g>
        </g>
        <path id="Caminho_178" data-name="Caminho 178" d="M516.558,478.824a46.919,46.919,0,0,1-5.737-1.5c-1.072-.356-2.1-.834-3.164-1.2a4.7,4.7,0,0,1-2.36-1.275.969.969,0,0,1-.271-.647.81.81,0,0,1,.79-.67,2.408,2.408,0,0,1,1.089.281,61.743,61.743,0,0,0,19.8,4.418c8.886.667,18.457.169,26.6-3.785,8.809-4.277,11.761-12.623,10.777-18.571-.969-5.862-5.444-9.858-11.873-10.644-15.36-1.911-33.361,7.279-43.771,22.351a.851.851,0,1,1-1.4-.967c10.755-15.57,29.416-25.057,45.379-23.072,7.264.907,12.241,5.413,13.338,12.055,1.326,8.007-3.49,16.384-11.71,20.375-7.473,3.627-16.084,4.485-24.291,4.179a86.972,86.972,0,0,1-12.641-1.224l-.553-.106" fill="#1a5610"/>
        <path id="Caminho_179" data-name="Caminho 179" d="M512.982,472.5a.85.85,0,0,1-.252-1.565c16.538-9.6,46.467-17.336,46.767-17.414a.85.85,0,0,1,.423,1.647c-.3.076-30,7.753-46.337,17.235a.837.837,0,0,1-.6.1" fill="#1a5610"/>
        <path id="Caminho_180" data-name="Caminho 180" d="M558.64,465.013a.818.818,0,0,1-.322-.142L548.775,458a.843.843,0,0,1-.2-1.177l.005-.008a.858.858,0,0,1,1.183-.193l9.545,6.87a.849.849,0,0,1-.669,1.52" fill="#1a5610"/>
        <path id="Caminho_181" data-name="Caminho 181" d="M548.815,471.052a.854.854,0,0,1-.374-.181l-10.892-9.184a.85.85,0,0,1,1.095-1.3l10.893,9.186a.849.849,0,0,1-.722,1.48" fill="#1a5610"/>
        <path id="Caminho_182" data-name="Caminho 182" d="M538.212,474.966a.843.843,0,0,1-.374-.181l-10.952-9.237a.851.851,0,0,1,1.1-1.3l10.95,9.237a.85.85,0,0,1-.721,1.48" fill="#1a5610"/>
        <path id="Caminho_183" data-name="Caminho 183" d="M526.136,474.588a.848.848,0,0,1-.374-.181l-6.547-5.522a.851.851,0,1,1,1.1-1.3l6.546,5.523a.85.85,0,0,1-.722,1.48" fill="#1a5610"/>
        <path id="Caminho_184" data-name="Caminho 184" d="M543.343,459.947h-.01a.852.852,0,0,1-.648-1.011l2.233-10.215a.85.85,0,0,1,1-.649h.009a.851.851,0,0,1,.65,1.011L544.353,459.3a.852.852,0,0,1-1.006.65" fill="#1a5610"/>
        <path id="Caminho_185" data-name="Caminho 185" d="M532.1,463.85l-.031-.006a.843.843,0,0,1-.62-1.021l0-.006,2.586-10.485a.815.815,0,0,1,.959-.638c.023.005.046.01.069.017a.847.847,0,0,1,.619,1.025v0L533.1,463.222a.847.847,0,0,1-1,.628" fill="#1a5610"/>
        <path id="Caminho_186" data-name="Caminho 186" d="M523.141,467.456h-.006a.852.852,0,0,1-.653-1.011l2.055-9.433a.851.851,0,0,1,1-.651h.008a.85.85,0,0,1,.652,1.008v0l-2.054,9.433a.853.853,0,0,1-1,.651" fill="#1a5610"/>
        <path id="Caminho_187" data-name="Caminho 187" d="M498.011,296.476c4.813,0,9.017,1.539,11.833,4.336,8.482,8.417,6.514,19.366-6.017,33.467-2.708,3.049-6.522,6.573-10.936,10.65-8.739,8.075-19.614,18.125-27.674,29.977-6.813,10.023-9.468,22.309-8.993,42.007l-9.3-4.179c-1.446-6.6-11.182-56.531,15.557-93.115,15.267-20.888,29.93-23.143,35.525-23.143m0-1.558c-10.545,0-24.351,6.772-36.784,23.782-29.324,40.119-15.644,95.138-15.644,95.138l12.273,5.518c-.689-19.125,1.281-32.736,8.649-43.573,11.969-17.6,30.247-31.2,38.487-40.469q19.569-22.026,5.947-35.61c-3.063-3.039-7.573-4.787-12.929-4.787" fill="#1a5610"/>
        <path id="Caminho_188" data-name="Caminho 188" d="M449.17,398.1a.9.9,0,0,0,.9-.889c.792-55.747,56.836-93.662,57.4-94.02a.9.9,0,0,0-.964-1.525c-.574.364-57.435,38.837-58.239,95.521a.9.9,0,0,0,.884.914h.019Z" fill="#1a5610"/>
        <path id="Caminho_189" data-name="Caminho 189" d="M495.34,312.321a.835.835,0,0,0,.186-.021.9.9,0,0,0,.7-1.062v-.006l-2.331-11.094a.9.9,0,1,0-1.763.372l2.329,11.094a.9.9,0,0,0,.882.716" fill="#1a5610"/>
        <path id="Caminho_190" data-name="Caminho 190" d="M505.906,320.443a.9.9,0,0,0,.242-1.77l-14.426-4.052a.9.9,0,0,0-.487,1.735l14.429,4.056a.907.907,0,0,0,.243.033" fill="#1a5610"/>
        <path id="Caminho_191" data-name="Caminho 191" d="M483.818,323.226a.909.909,0,0,0,.244-.033.9.9,0,0,0,.627-1.108l0-.005-4.057-14.39a.9.9,0,1,0-1.737.491l4.059,14.388a.9.9,0,0,0,.866.658" fill="#1a5610"/>
        <path id="Caminho_192" data-name="Caminho 192" d="M498.219,333.8a.9.9,0,0,0,.259-1.765l-18.412-5.533a.9.9,0,0,0-.517,1.727l18.412,5.533a.907.907,0,0,0,.259.038" fill="#1a5610"/>
        <path id="Caminho_193" data-name="Caminho 193" d="M473.506,335.059a.85.85,0,0,0,.315-.058.9.9,0,0,0,.528-1.158l-5.88-15.721a.9.9,0,0,0-1.689.631l5.881,15.719a.9.9,0,0,0,.844.587" fill="#1a5610"/>
        <path id="Caminho_194" data-name="Caminho 194" d="M488.791,341.964a.9.9,0,0,0,.21-1.776l-16.763-4.048a.9.9,0,1,0-.425,1.752l16.766,4.048a.892.892,0,0,0,.213.024" fill="#1a5610"/>
        <path id="Caminho_195" data-name="Caminho 195" d="M465.395,345.38a.886.886,0,0,0,.433-.111.9.9,0,0,0,.357-1.222l0,0-6.853-12.483a.9.9,0,1,0-1.582.866l6.855,12.488a.9.9,0,0,0,.792.468" fill="#1a5610"/>
        <path id="Caminho_196" data-name="Caminho 196" d="M477.952,351.419a.9.9,0,0,0,.091-1.8L464.259,348.2a.9.9,0,1,0-.186,1.795l13.783,1.428h.1" fill="#1a5610"/>
        <path id="Caminho_197" data-name="Caminho 197" d="M459.654,356.638a.9.9,0,0,0,.757-1.388l-6.884-10.75a.9.9,0,0,0-1.519.972l6.885,10.751a.9.9,0,0,0,.761.415" fill="#1a5610"/>
        <path id="Caminho_198" data-name="Caminho 198" d="M457.359,362.749h.02l9.922-.2a.9.9,0,0,0-.018-1.8h-.02l-9.923.2a.9.9,0,0,0,.019,1.8" fill="#1a5610"/>
        <path id="Caminho_199" data-name="Caminho 199" d="M453.942,370.224a.906.906,0,0,0,.733-1.431l0,0-5.916-8.081a.9.9,0,0,0-1.454,1.067l5.916,8.081a.9.9,0,0,0,.73.368" fill="#1a5610"/>
        <path id="Caminho_200" data-name="Caminho 200" d="M452.148,377.207h.063l7.5-.517a.9.9,0,0,0,.836-.96.885.885,0,0,0-.932-.838l-.028,0-7.5.515a.9.9,0,0,0,.06,1.8" fill="#1a5610"/>
        <path id="Caminho_201" data-name="Caminho 201" d="M253.289,446.788a.9.9,0,0,0,.9-.683c10.845-45.515-24.44-87.117-28.5-91.711-2.548-2.888-10.771-13-9.581-21.93a12.16,12.16,0,0,1,5.813-8.695,19.8,19.8,0,0,1,11.824-3.306c9.45.349,19.684,6.878,28.815,18.387,12.766,16.085,18.96,51.558,13,74.423a130.642,130.642,0,0,1-6.989,19.981,36.654,36.654,0,0,1-10.185,13.373,2.946,2.946,0,0,0-.985,1.15,2.679,2.679,0,0,0,2.029-.035,6.466,6.466,0,0,0,1.744-1.121,32.853,32.853,0,0,0,8.715-12,131.889,131.889,0,0,0,7.391-20.9c6.189-23.733-.038-59.234-13.327-75.976-9.466-11.936-20.172-18.71-30.142-19.076a21.505,21.505,0,0,0-12.862,3.613,13.849,13.849,0,0,0-6.6,9.947c-1.292,9.677,7.337,20.312,10.013,23.34,4,4.525,38.736,45.483,28.1,90.121a.878.878,0,0,0,.1.669.9.9,0,0,0,.556.4.827.827,0,0,0,.172.024" fill="#1a5610"/>
        <path id="Caminho_202" data-name="Caminho 202" d="M256.874,446.645c-.044.4-.248,1.737.3,1.853.478.1,1.093-.839,1.292-1.159,1.175-1.887,1.336-3.9,2-5.927q.885-2.685,1.654-5.4a148.681,148.681,0,0,0,3.544-15.559c2.754-16.054,2.979-33.113-2.4-48.668-8.2-23.711-28.949-42.963-37.312-46.209a.835.835,0,0,0-.287-.058.889.889,0,0,0-.355,1.718c7.138,2.769,28.09,21.466,36.274,45.133q.82,2.377,1.467,4.811c4.006,15.028,3.255,31.058.29,46.2A144.8,144.8,0,0,1,259.28,439.3c-.674,2.126-2.146,4.9-2.415,7.35" fill="#1a5610"/>
        <path id="Caminho_203" data-name="Caminho 203" d="M220.021,337.919a.746.746,0,0,0,.164-.009L237,335.429a.889.889,0,0,0-.094-1.768.763.763,0,0,0-.166.009l-16.82,2.479a.864.864,0,0,0-.576.339.9.9,0,0,0-.172.67.887.887,0,0,0,.845.76" fill="#1a5610"/>
        <path id="Caminho_204" data-name="Caminho 204" d="M228.68,347.319l17.549-2a.907.907,0,0,0,.784-.983.887.887,0,0,0-.852-.788l-17.685,2.009a.836.836,0,0,0-.582.307.916.916,0,0,0-.2.678.893.893,0,0,0,.852.785Z" fill="#1a5610"/>
        <path id="Caminho_205" data-name="Caminho 205" d="M234.326,356.651a.929.929,0,0,0,.166-.009l18.091-2.664a.888.888,0,0,0-.1-1.766.932.932,0,0,0-.166.007l-18.091,2.662a.89.89,0,0,0,.1,1.771" fill="#1a5610"/>
        <path id="Caminho_206" data-name="Caminho 206" d="M258.729,364.044a.911.911,0,0,0,.83-.942.88.88,0,0,0-.851-.831l-19.66,1.231a.888.888,0,0,0,.021,1.774Z" fill="#1a5610"/>
        <path id="Caminho_207" data-name="Caminho 207" d="M262.767,373.861a.923.923,0,0,0,.851-.928.893.893,0,0,0-.854-.849l-18.451.8a.89.89,0,0,0,0,1.778Z" fill="#1a5610"/>
        <path id="Caminho_208" data-name="Caminho 208" d="M265.452,385.991a.92.92,0,0,0,.848-.926.89.89,0,0,0-.852-.85l-16.607.72a.865.865,0,0,0-.853.875c0,.018,0,.035,0,.052a.9.9,0,0,0,.853.852Z" fill="#1a5610"/>
        <path id="Caminho_209" data-name="Caminho 209" d="M266.613,395.861a.854.854,0,0,0,.188-.017.887.887,0,0,0-.136-1.759l-13.11-.289a.871.871,0,0,0-.625.24.884.884,0,0,0-.284.631.893.893,0,0,0,.856.907Z" fill="#1a5610"/>
        <path id="Caminho_210" data-name="Caminho 210" d="M266.353,408.34a.837.837,0,0,0,.2-.016.889.889,0,0,0-.044-1.754l-10.2-1.42a.9.9,0,0,0-.992.758.888.888,0,0,0,.758,1Z" fill="#1a5610"/>
        <path id="Caminho_211" data-name="Caminho 211" d="M265.213,418.564a.84.84,0,0,0,.2-.017.888.888,0,0,0,.047-1.734l-8.625-2.17a.888.888,0,1,0-.435,1.721h0l8.624,2.17a.908.908,0,0,0,.188.028" fill="#1a5610"/>
        <path id="Caminho_212" data-name="Caminho 212" d="M265.81,414.113a.839.839,0,0,0,.2-.017.728.728,0,0,0,.186-.057l8.756-3.809a.89.89,0,0,0-.329-1.705.812.812,0,0,0-.379.075l-8.756,3.81a.888.888,0,0,0,.32,1.7" fill="#1a5610"/>
        <path id="Caminho_213" data-name="Caminho 213" d="M266.639,401.45a.892.892,0,0,0,.2-.016.906.906,0,0,0,.2-.063l9.1-4.047a.889.889,0,0,0-.323-1.7.933.933,0,0,0-.4.077l-9.1,4.049a.889.889,0,0,0,.328,1.7" fill="#1a5610"/>
        <path id="Caminho_214" data-name="Caminho 214" d="M266.133,389.856a.84.84,0,0,0,.2-.017.9.9,0,0,0,.246-.085l8.379-4.4a.891.891,0,0,0-.83-1.576l-8.379,4.4a.891.891,0,0,0,.385,1.677" fill="#1a5610"/>
        <path id="Caminho_215" data-name="Caminho 215" d="M263.892,378.208a.788.788,0,0,0,.2-.016.878.878,0,0,0,.375-.167l8.261-6.346a.889.889,0,0,0-1.081-1.411l0,0-8.263,6.345a.889.889,0,0,0,.509,1.593" fill="#1a5610"/>
        <path id="Caminho_216" data-name="Caminho 216" d="M241.55,339.912a.89.89,0,0,0,.831-.5l4.829-9.778a.89.89,0,0,0-.4-1.191.868.868,0,0,0-.356-.09.907.907,0,0,0-.836.494l-4.828,9.78a.886.886,0,0,0,.4,1.188.855.855,0,0,0,.36.093" fill="#1a5610"/>
        <path id="Caminho_217" data-name="Caminho 217" d="M249.665,349.539a.845.845,0,0,0,.2-.016.88.88,0,0,0,.614-.451l6.358-11.789a.89.89,0,0,0-.363-1.2.856.856,0,0,0-.386-.107.9.9,0,0,0-.819.467l-6.352,11.784a.891.891,0,0,0,.363,1.2.869.869,0,0,0,.39.107" fill="#1a5610"/>
        <path id="Caminho_218" data-name="Caminho 218" d="M255.51,358.292a.9.9,0,0,0,.729-.336l8.211-10.329a.888.888,0,0,0-.142-1.249.856.856,0,0,0-.519-.191.9.9,0,0,0-.732.335l-8.214,10.327a.891.891,0,0,0,.145,1.249.86.86,0,0,0,.518.194" fill="#1a5610"/>
        <path id="Caminho_219" data-name="Caminho 219" d="M260.59,368.286a.891.891,0,0,0,.681-.283l8.491-9.136a.888.888,0,0,0-.04-1.255l0,0a.877.877,0,0,0-.571-.235.891.891,0,0,0-.684.281l-8.491,9.136a.889.889,0,0,0,.617,1.5" fill="#1a5610"/>
        <path id="Caminho_220" data-name="Caminho 220" d="M231.427,330.785a.889.889,0,0,0,.866-.576l2.3-6.081a.89.89,0,0,0-1.666-.626l-2.3,6.081a.891.891,0,0,0,.529,1.145.861.861,0,0,0,.271.055" fill="#1a5610"/>
        <path id="Caminho_221" data-name="Caminho 221" d="M440.116,472.554a66.968,66.968,0,0,0,49.2,9.2,56.4,56.4,0,0,0,15.119-5.391c22.293-11.975,15.374-18.583,11.686-21.179s-13.548-9.287-16.066-15.314a95.949,95.949,0,0,0,17.92,7.4c9.033,2.5,10.925,6.82,19.786-4.379s12.034-30.58,12.034-30.58-15.031,1.728-22.48-4.351c0,0,15.409-2.062,20.623-5.384s4.851-8.929,6.425-18.454,4.535-20.241-.481-21.6-18.494-4.385-37.882,2.957c0,0-8.755,15.45-8.876,26.4,0,0-3.892-12.718,1.691-29.894a52.293,52.293,0,0,0-19.616,3.7c-10.573,4.149-17.584,8.554-19.728,12.21s-5.414,21.2-.778,35.89c0,0-8.982-9.757-8.282-22.124s-2.749-9.792-7.791-7.587c-4.544,1.989-28.57,32.879-24.147,70.261a25.07,25.07,0,0,0,11.644,18.214" fill="#2ab54e"/>
        <path id="Caminho_222" data-name="Caminho 222" d="M447.586,470.847a.748.748,0,0,0,.625-.333C501.5,390.767,551.823,367.268,552.325,367.039a.749.749,0,1,0-.62-1.364c-.506.23-51.191,23.865-104.741,104a.749.749,0,0,0,.207,1.039.737.737,0,0,0,.416.128" fill="#fff"/>
        <path id="Caminho_223" data-name="Caminho 223" d="M536.43,430.975a.749.749,0,0,0,.167-1.48c-.249-.057-25.092-5.832-42.6-17.246a.75.75,0,1,0-.82,1.257c17.733,11.561,42.832,17.394,43.085,17.45a.786.786,0,0,0,.167.02" fill="#fff"/>
        <path id="Caminho_224" data-name="Caminho 224" d="M500.456,465.623a.75.75,0,0,0,.219-1.467c-.2-.06-20.064-6.214-36-17.5a.749.749,0,1,0-.889,1.2l.023.017c16.137,11.426,36.227,17.645,36.427,17.707a.723.723,0,0,0,.221.033" fill="#fff"/>
        <path id="Caminho_225" data-name="Caminho 225" d="M528.979,388.484a62.182,62.182,0,0,0,18.755-3.479.75.75,0,0,0-.516-1.408c-.143.053-14.586,5.252-24.824,2.647a.75.75,0,1,0-.369,1.453,28.424,28.424,0,0,0,6.954.787" fill="#fff"/>
        <path id="Caminho_226" data-name="Caminho 226" d="M485.216,421.718a.719.719,0,0,0,.241-.057.777.777,0,0,0,.422-1.015v0c-9.9-23.766-.1-47.13,0-47.362a.779.779,0,0,0-1.43-.616c-.1.241-10.158,24.211-.013,48.576a.779.779,0,0,0,.776.478" fill="#fff"/>
        <path id="Caminho_227" data-name="Caminho 227" d="M458.12,454.364a.75.75,0,0,0,.624-1.163,61.46,61.46,0,0,1-8.934-44.261.75.75,0,0,0-1.461-.34c0,.015-.005.03-.008.045a63.013,63.013,0,0,0,9.154,45.382.747.747,0,0,0,.625.336" fill="#fff"/>
        <path id="Caminho_228" data-name="Caminho 228" d="M205.451,493.566c1.613-1.226,3.181-2.517,4.67-3.89a39.621,39.621,0,0,0,6.935-8.807,1.851,1.851,0,0,0,.351-.91.663.663,0,0,0-.556-.7.937.937,0,0,0-.644.364A26.625,26.625,0,0,0,214,482.4c-4.422,5.991-10.5,10.663-16.838,14.514a70.883,70.883,0,0,1-21.439,8.926,43.609,43.609,0,0,1-10.888,1.058c-11.381-.416-18.441-7.911-20.185-14.7-1.717-6.693,1.166-13.045,7.638-16.9,15.442-9.244,38.911-7.916,57.062,3.234a.988.988,0,0,0,1.034-1.684c-18.751-11.519-43.061-12.853-59.115-3.247-7.3,4.375-10.482,11.506-8.532,19.089,2.347,9.14,11.4,15.794,22.026,16.183a53.059,53.059,0,0,0,19.939-3.6,77.277,77.277,0,0,0,16.416-8.636c1.473-.982,2.922-2,4.332-3.071" fill="#1a5610"/>
        <path id="Caminho_229" data-name="Caminho 229" d="M206.229,483.074c.051-.017.1-.03.151-.044a38.8,38.8,0,0,0,4.686-1.673,23.108,23.108,0,0,0,4.262-2.229c.326-.24.679-.585.594-.98a4.63,4.63,0,0,0-1.981.465c-.445.173-.894.344-1.344.508a73.626,73.626,0,0,1-23.1,4.451c-6.469.156-12.932.609-19.373,1.231q-7.679.741-15.327,1.8c-2.129.293-4.259.6-6.381.945a.989.989,0,0,0,.324,1.951l1.012-.162c3.3-.514,6.6-.967,9.916-1.382,5.581-.7,11.176-1.285,16.785-1.721,4-.309,7.984-.585,11.982-.547a58.423,58.423,0,0,0,12.052-1.188q2.9-.585,5.738-1.423" fill="#1a5610"/>
        <path id="Caminho_230" data-name="Caminho 230" d="M154.726,499.374a.965.965,0,0,0,.276-.3l6.928-11.791a.981.981,0,0,0-.339-1.346l-.011-.006a1,1,0,0,0-1.35.35L153.3,498.07a.987.987,0,0,0,1.424,1.3" fill="#1a5610"/>
        <path id="Caminho_231" data-name="Caminho 231" d="M168.013,501.184a.981.981,0,0,0,.312-.368L175.6,485.93a.987.987,0,0,0-1.773-.868l-7.279,14.885a.988.988,0,0,0,1.462,1.238" fill="#1a5610"/>
        <path id="Caminho_232" data-name="Caminho 232" d="M181.134,500.374a.994.994,0,0,0,.312-.369l7.316-14.969a.988.988,0,1,0-1.775-.867l-7.316,14.967a.988.988,0,0,0,1.462,1.238" fill="#1a5610"/>
        <path id="Caminho_233" data-name="Caminho 233" d="M193.8,494.3a.977.977,0,0,0,.312-.369l4.374-8.948a.988.988,0,0,0-1.742-.931l-.031.063-4.373,8.948a.988.988,0,0,0,1.462,1.237" fill="#1a5610"/>
        <path id="Caminho_234" data-name="Caminho 234" d="M168.622,486.8l.008-.006a.988.988,0,0,0,.218-1.38l-7.171-9.82a.993.993,0,0,0-1.375-.221l-.008.006a.987.987,0,0,0-.217,1.379h0l7.17,9.819a.991.991,0,0,0,1.375.221" fill="#1a5610"/>
        <path id="Caminho_235" data-name="Caminho 235" d="M182.414,485.673l.029-.021a.985.985,0,0,0,.177-1.384v0l-7.68-9.935a.943.943,0,0,0-1.315-.233.586.586,0,0,0-.069.054.986.986,0,0,0-.177,1.385l7.678,9.938a.982.982,0,0,0,1.355.2" fill="#1a5610"/>
        <path id="Caminho_236" data-name="Caminho 236" d="M193.644,485.3h.006a.988.988,0,0,0,.22-1.381h0l-6.616-9.072a.991.991,0,0,0-1.374-.221h-.006a.987.987,0,0,0-.22,1.38l0,0,6.614,9.072a.989.989,0,0,0,1.374.221" fill="#1a5610"/>
        <path id="Caminho_237" data-name="Caminho 237" d="M239.156,477.042c-12.923,1.713-37.591,9.941-62.1-8.66s-34.7-71.8-29.138-88.188c3.885-11.448,69.951-8.338,93.814,14.634s25.923,66.049-2.576,82.213" fill="#2ab54e"/>
        <path id="Caminho_238" data-name="Caminho 238" d="M244.97,468.077a1.076,1.076,0,0,0,.268-1.027c-11.722-43.594-61.306-78.772-85.766-86.218a1.069,1.069,0,0,0-.623,2.046c24.056,7.324,72.8,41.9,84.322,84.727a1.068,1.068,0,0,0,1.31.755h0a1.053,1.053,0,0,0,.489-.284" fill="#fff"/>
        <path id="Caminho_239" data-name="Caminho 239" d="M191.885,399.607a1.072,1.072,0,0,0-1.181-1.736c-7.534,3.17-21.206,5.383-31.7,3.252a1.071,1.071,0,1,0-.426,2.1c10.915,2.218,25.124-.082,32.953-3.372a1.086,1.086,0,0,0,.353-.239" fill="#fff"/>
        <path id="Caminho_240" data-name="Caminho 240" d="M201.227,406.4a1.082,1.082,0,0,0,.342-.4c3.9-7.937,4.923-14.359,3.312-20.829a1.07,1.07,0,1,0-2.077.517c1.479,5.944.5,11.914-3.157,19.364a1.071,1.071,0,0,0,1.58,1.348" fill="#fff"/>
        <path id="Caminho_241" data-name="Caminho 241" d="M211.331,415.7a1.071,1.071,0,0,0-1.3-1.677c-12.678,7.231-31.451,13.532-46.108,9.521a1.072,1.072,0,0,0-.566,2.068c12.982,3.552,30.828-.087,47.736-9.733a1.062,1.062,0,0,0,.235-.18" fill="#fff"/>
        <path id="Caminho_242" data-name="Caminho 242" d="M223.021,427.8a1.045,1.045,0,0,0,.315-.377c5.67-11.138,8.568-20.933,9.112-30.827a1.072,1.072,0,0,0-2.141-.114c-.523,9.583-3.345,19.106-8.875,29.97a1.07,1.07,0,0,0,1.588,1.348" fill="#fff"/>
        <path id="Caminho_243" data-name="Caminho 243" d="M231.149,438.9a1.07,1.07,0,0,0-1.3-1.678c-17.434,9.952-34.152,13.879-52.6,12.363a1.071,1.071,0,1,0-.179,2.134c18.648,1.531,36.264-2.6,53.848-12.638a1.117,1.117,0,0,0,.234-.181" fill="#fff"/>
        <path id="Caminho_244" data-name="Caminho 244" d="M148.2,230.435a1.2,1.2,0,0,1-1.582-.434l-.619-.994a6.118,6.118,0,0,0-7.64-2.4l-1.076.462a1.207,1.207,0,0,1-1.118-2.132l.995-.621a6.113,6.113,0,0,0,2.4-7.64l-.462-1.076a1.206,1.206,0,0,1,2.131-1.114l.621.992a6.114,6.114,0,0,0,7.641,2.4l1.076-.462a1.206,1.206,0,0,1,1.112,2.134l-.992.62a6.112,6.112,0,0,0-2.4,7.64l.461,1.079a1.207,1.207,0,0,1-.549,1.546Zm-5.726-10.963a8.482,8.482,0,0,1-1.325,4.222,8.482,8.482,0,0,1,4.222,1.325,8.515,8.515,0,0,1,1.325-4.222,8.5,8.5,0,0,1-4.222-1.325" fill="#2ab54e"/>
        <path id="Caminho_245" data-name="Caminho 245" d="M172.587,268.5a4.314,4.314,0,1,1,6.009-1.058,4.315,4.315,0,0,1-6.009,1.058m.771-1.1a2.968,2.968,0,1,0-.727-4.135,2.968,2.968,0,0,0,.727,4.135" fill="#2ab54e"/>
        <path id="Caminho_246" data-name="Caminho 246" d="M105.019,211.258a4.313,4.313,0,1,1,6.01-1.057,4.312,4.312,0,0,1-6.01,1.057m.773-1.1a2.968,2.968,0,1,0-.729-4.135,2.968,2.968,0,0,0,.729,4.135" fill="#2ab54e"/>
        <path id="Caminho_247" data-name="Caminho 247" d="M132.05,259.678a.579.579,0,0,0,.245-.783v0l-.9-1.717a.581.581,0,0,0-1.028.539l.9,1.719a.582.582,0,0,0,.784.244" fill="#1a5610"/>
        <path id="Caminho_248" data-name="Caminho 248" d="M133.617,260.167l1.718-.9a.581.581,0,0,0-.539-1.03l-1.719.9a.581.581,0,1,0,.516,1.041l.025-.013" fill="#1a5610"/>
        <path id="Caminho_249" data-name="Caminho 249" d="M134.081,263.551a.58.58,0,0,0,.245-.783h0l-.9-1.719a.581.581,0,0,0-1.029.538l.9,1.72a.581.581,0,0,0,.784.245" fill="#1a5610"/>
        <path id="Caminho_250" data-name="Caminho 250" d="M129.744,262.2l1.718-.9a.582.582,0,0,0-.539-1.031l-1.717.9a.58.58,0,1,0,.491,1.052l.048-.025" fill="#1a5610"/>
        <path id="Caminho_251" data-name="Caminho 251" d="M145.742,182.256a.609.609,0,0,0,.257-.82v0l-.944-1.8a.608.608,0,1,0-1.077.565l.943,1.8a.609.609,0,0,0,.822.257" fill="#1a5610"/>
        <path id="Caminho_252" data-name="Caminho 252" d="M147.381,182.767l1.8-.943a.608.608,0,0,0-.565-1.077l-1.8.943a.608.608,0,1,0,.565,1.077" fill="#1a5610"/>
        <path id="Caminho_253" data-name="Caminho 253" d="M147.867,186.311a.609.609,0,0,0,.256-.822l-.944-1.8a.609.609,0,1,0-1.082.559l0,.006.944,1.8a.611.611,0,0,0,.823.257" fill="#1a5610"/>
        <path id="Caminho_254" data-name="Caminho 254" d="M143.326,184.9l1.8-.943a.609.609,0,0,0-.567-1.077l-1.8.943a.608.608,0,1,0,.566,1.077" fill="#1a5610"/>
        <path id="Caminho_255" data-name="Caminho 255" d="M170.742,294.256a.609.609,0,0,0,.257-.82v0l-.944-1.8a.608.608,0,1,0-1.077.565l.943,1.8a.609.609,0,0,0,.822.257" fill="#1a5610"/>
        <path id="Caminho_256" data-name="Caminho 256" d="M172.381,294.767l1.8-.943a.608.608,0,1,0-.565-1.077l-1.8.943a.608.608,0,0,0,.565,1.077" fill="#1a5610"/>
        <path id="Caminho_257" data-name="Caminho 257" d="M172.867,298.311a.609.609,0,0,0,.256-.822l-.944-1.8a.609.609,0,1,0-1.082.559l0,.006.944,1.8a.611.611,0,0,0,.823.257" fill="#1a5610"/>
        <path id="Caminho_258" data-name="Caminho 258" d="M168.326,296.9l1.8-.943a.609.609,0,0,0-.567-1.077l-1.8.943a.608.608,0,1,0,.566,1.077" fill="#1a5610"/>
        <path id="Caminho_259" data-name="Caminho 259" d="M570.365,230a1.206,1.206,0,0,1-.549-1.546l.461-1.079a6.113,6.113,0,0,0-2.4-7.64l-.991-.62A1.206,1.206,0,0,1,568,216.979l1.077.462a6.114,6.114,0,0,0,7.641-2.4l.62-.992a1.206,1.206,0,0,1,2.132,1.114L579,216.239a6.115,6.115,0,0,0,2.4,7.64l.995.621a1.207,1.207,0,0,1-1.118,2.132l-1.077-.462a6.117,6.117,0,0,0-7.639,2.4l-.619.994a1.2,1.2,0,0,1-1.582.434Zm5.724-10.963a8.5,8.5,0,0,1-4.223,1.325,8.507,8.507,0,0,1,1.326,4.222,8.481,8.481,0,0,1,4.221-1.325,8.481,8.481,0,0,1-1.324-4.222" fill="#2ab54e"/>
        <path id="Caminho_260" data-name="Caminho 260" d="M545.972,268.059a4.314,4.314,0,1,1,1.058-6.009,4.318,4.318,0,0,1-1.058,6.009m-.771-1.1a2.967,2.967,0,1,0-4.134-.728,2.975,2.975,0,0,0,4.134.728" fill="#2ab54e"/>
        <path id="Caminho_261" data-name="Caminho 261" d="M613.54,210.822a4.313,4.313,0,1,1,1.055-6.008,4.319,4.319,0,0,1-1.055,6.008m-.772-1.1a2.968,2.968,0,1,0-4.134-.729,2.968,2.968,0,0,0,4.134.729" fill="#2ab54e"/>
        <path id="Caminho_262" data-name="Caminho 262" d="M586.51,259.241a.581.581,0,0,0,.783-.244l.9-1.718a.581.581,0,0,0-1.029-.539l-.9,1.717h0a.579.579,0,0,0,.245.783" fill="#1a5610"/>
        <path id="Caminho_263" data-name="Caminho 263" d="M584.942,259.728l.024.013a.581.581,0,1,0,.517-1.041l-1.719-.9a.581.581,0,1,0-.539,1.03l1.718.9" fill="#1a5610"/>
        <path id="Caminho_264" data-name="Caminho 264" d="M584.479,263.114a.582.582,0,0,0,.784-.246l.9-1.719a.58.58,0,0,0-1.028-.538l-.9,1.718v0a.58.58,0,0,0,.245.783" fill="#1a5610"/>
        <path id="Caminho_265" data-name="Caminho 265" d="M588.815,261.757a.442.442,0,0,0,.048.025.581.581,0,1,0,.491-1.053l-1.717-.9a.582.582,0,0,0-.539,1.031l1.718.9" fill="#1a5610"/>
        <path id="Caminho_266" data-name="Caminho 266" d="M572.818,181.819a.609.609,0,0,0,.822-.257l.942-1.8a.608.608,0,1,0-1.077-.565l-.943,1.8v0a.608.608,0,0,0,.258.82" fill="#1a5610"/>
        <path id="Caminho_267" data-name="Caminho 267" d="M571.179,182.33a.608.608,0,0,0,.564-1.077l-1.8-.943a.608.608,0,1,0-.565,1.077l1.8.943" fill="#1a5610"/>
        <path id="Caminho_268" data-name="Caminho 268" d="M570.694,185.874a.61.61,0,0,0,.822-.257l.943-1.8,0-.006a.609.609,0,1,0-1.082-.559l-.944,1.8a.609.609,0,0,0,.257.822" fill="#1a5610"/>
        <path id="Caminho_269" data-name="Caminho 269" d="M575.234,184.459a.608.608,0,0,0,.566-1.077l-1.8-.943a.608.608,0,1,0-.566,1.077l1.8.943" fill="#1a5610"/>
        <path id="Caminho_270" data-name="Caminho 270" d="M547.818,293.819a.609.609,0,0,0,.822-.257l.942-1.8a.608.608,0,1,0-1.077-.565l-.943,1.8v0a.608.608,0,0,0,.258.82" fill="#1a5610"/>
        <path id="Caminho_271" data-name="Caminho 271" d="M546.179,294.33a.608.608,0,0,0,.564-1.077l-1.8-.943a.608.608,0,1,0-.565,1.077l1.8.943" fill="#1a5610"/>
        <path id="Caminho_272" data-name="Caminho 272" d="M545.694,297.874a.61.61,0,0,0,.822-.257l.943-1.8,0-.006a.609.609,0,1,0-1.082-.559l-.944,1.8a.609.609,0,0,0,.257.822" fill="#1a5610"/>
        <path id="Caminho_273" data-name="Caminho 273" d="M550.234,296.459a.608.608,0,0,0,.566-1.077l-1.8-.943a.608.608,0,1,0-.566,1.077l1.8.943" fill="#1a5610"/>
        <path id="Caminho_274" data-name="Caminho 274" d="M338.112,541.217s55.773-21.645,62.657-27.578c5.744-4.952,2.294-16.818,10.27-18.84,9.182-2.329,32.054,9.214,47.1,5.7s28.2-6.418,33.771-3.561,1.845,7.427-22.2,19.208c-13.825,6.772-31.426,14.644-42.7,19.37-14.663,6.147-21.628,12.224-22.825,13.067-14.708,10.926-17.407,13.255-34.8,24.312C334.6,595,314.139,600.828,286.471,595.263Z" fill="#ffbda7"/>
        <path id="Caminho_275" data-name="Caminho 275" d="M401.409,514.94c12.269,7.065,18.2,14.871,18.913,28.461,0,0-8.289,6.414-21.382,15.482-15.692,10.87-53.683,35.578-79.043,38.164-39.332,4.011-52.8-6.1-52.8-6.1Z" fill="#f7f7f7"/>
        <path id="Caminho_276" data-name="Caminho 276" d="M412.791,522.569c-20.132,34.953-69.342,56.7-84.778,58.317,5.467-4.618,13.481-20.293,21.079-37.3l52.316-30.043a46.106,46.106,0,0,1,11.384,9.026" fill="#e0e0e0"/>
        <path id="Caminho_277" data-name="Caminho 277" d="M194.216,510.358c6.075-21.677,23.957-37.413,50.88-59.975,22.831-19.131,65.056-50.111,65.056-50.111l.016.017-.008-.016,120.272-23.954c4.878,21.952,20.892,37.442,20.847,67.961-.033,22.2-3.49,53.521-42.329,82.351-23.563,17.492-42.356,31.224-59.239,41.948-17.834,11.329-58.14,33.636-80.438,23.444-17.054-7.8-19.987-22.772-19.378-35.284h-.028c-2.721.257-5.443.4-7.965.429-2.949.086-5.643.057-7.763.057a53.327,53.327,0,0,1-23.056-5.8c-14.611-7.5-21.736-23.689-16.866-41.067" fill="#f7f7f7"/>
        <path id="Caminho_278" data-name="Caminho 278" d="M241.9,557.172c2.522-.027,5.271-.175,7.993-.432,3.922-24.272,95.367-94.493,95.367-94.493-6.356-3.088-21.09-10.976-26.028-19.844,2.017,11.285,8.5,17.039,14.784,21.621-9.654,8.651-50.246,42.861-61.072,53.147-11.374,10.827-25.542,24.7-31.044,40" fill="#e0e0e0"/>
        <path id="Caminho_279" data-name="Caminho 279" d="M328.292,242.746c-17.5,4.17-24.81,5.815-33.289,16.306-5.924,7.327-26.357,58.738-31.973,83.223-3.79,16.522-3.541,39.959,3.782,45.188,7.792,5.566,22.25-1.875,30.8-9.116,6.212-5.265,9.009-8.752,12.242-11.461Z" fill="#ffbda7"/>
        <path id="Caminho_280" data-name="Caminho 280" d="M288.343,343.579c-6.175-.58-15.106.61-20.219,5.917,2.557-4.84,9.348-9.231,20.94-8.137Z" fill="#f0997a"/>
        <path id="Caminho_281" data-name="Caminho 281" d="M295.027,288.332c9.432-20.009,19.788-32.371,33.266-45.739,0,0,17.3-4.208,29.014-6.115s18.162-1.265,30.4.079c6.139.677,24.147,5.178,33.661,7.189-.883,27.986-6.163,42.286,11.761,64.231.456,17.423-2.892,52.413-3.313,64.49-.345,9.89,14.365,26.878,19.9,51.161C427.286,448.184,334.6,455.1,297.133,409.8c2.7-5.009,7.435-13.3,12.182-19.075-1.691-21.663-2.153-42.494-3.058-47.946-16.038-15.861-20.1-35.623-11.228-54.449" fill="#fff"/>
        <path id="Caminho_282" data-name="Caminho 282" d="M386.7,118.187s13.832-1.572,23.621,16.472c12.151,22.4,13.048,47.064,12.75,62.884-.3,15.6-4.676,23.386-14.108,28.168a38.97,38.97,0,0,0,.5-22.481s-3.99,23.258-26.785,29.447-62.786,12.153-75.363-3.739c5.273-13.3-3.142-56.511-3.142-56.511A25.422,25.422,0,0,1,287.791,151c-1.733-16.737,7.842-31.816,21.772-33.83,0,.56,18.164-9,18.164-9,6.612-8.056,44.832-10.939,58.972,10.018" fill="#50403f"/>
        <path id="Caminho_283" data-name="Caminho 283" d="M388.963,169.148c-1.553-21.192-28.324-60.807-79.4-51.98,0,0,4.988-5.9,18.166-9,17.826-.259,57.22,3.221,66.72,57.8a14.229,14.229,0,0,0-5.484,3.175" fill="#fff"/>
        <path id="Caminho_284" data-name="Caminho 284" d="M312.507,128.617c-6.141,6.885-13.239,21.2-8.613,60.492,3.919,33.3,15.686,39.663,21.187,41.374,4.569,1.423,13.746,1.453,20.779-.7l2.5,13.246s-20.069,21.1-3.743,24.616c32.551,7.012,47.682-28.482,47.682-28.482l-5.57-38.946s9.256,4.854,18.17-4.958c7.361-8.1,8.9-20.724,1.986-26.763s-18.349-3.134-21.9,6.75c0,0-17.265,2.478-38.665-6.843-20.782-9.053-30.376-27.24-33.817-39.787" fill="#ffbda7"/>
        <path id="Caminho_285" data-name="Caminho 285" d="M337.616,209.055a2.323,2.323,0,1,0,2.322-2.323,2.323,2.323,0,0,0-2.322,2.323" fill="#f0997a"/>
        <path id="Caminho_286" data-name="Caminho 286" d="M345.86,229.782c6.951-1.629,17.459-3.865,26.172-10.069,3.878-2.762,6.158-7.341,7.986-12.526,0,0,.615,8.651-4.521,14.743-6.626,7.853-28.542,13.435-28.542,13.435Z" fill="#f0997a"/>
        <path id="Caminho_287" data-name="Caminho 287" d="M385.5,170.106l-1.669,15.852a7.483,7.483,0,0,1-6.915-8.011c.011-.14.024-.279.043-.419a8.234,8.234,0,0,1,8.54-7.422" fill="#50403f"/>
        <path id="Caminho_288" data-name="Caminho 288" d="M340.217,176.016c-.983.62.538,5.589,6.159,5.7,5.495.112,7.318-3.929,6.216-4.854s-2.579,1.807-6.616,1.274c-4.411-.584-4.774-2.741-5.758-2.123" fill="#3e2f2e"/>
        <path id="Caminho_289" data-name="Caminho 289" d="M307.466,177.448c-.814.783,1.615,5.213,6.985,4.212,5.25-.979,6.187-5.183,4.957-5.846s-2.1,2.229-6.045,2.519c-4.314.314-5.083-1.667-5.9-.883" fill="#3e2f2e"/>
        <path id="Caminho_290" data-name="Caminho 290" d="M345.847,160.676l9.8,3.481a5.455,5.455,0,0,0-3.269-6.809,5.077,5.077,0,0,0-6.464,3.12c-.023.069-.046.138-.067.208" fill="#3e2f2e"/>
        <path id="Caminho_291" data-name="Caminho 291" d="M305.077,166.426l9.553-4.311a5.032,5.032,0,0,0-6.52-2.847c-.084.033-.167.068-.249.107a5.5,5.5,0,0,0-2.784,7.05" fill="#3e2f2e"/>
        <path id="Caminho_292" data-name="Caminho 292" d="M331.75,172.426l.56,25.63-13.672-3.523Z" fill="#f0997a"/>
        <path id="Caminho_293" data-name="Caminho 293" d="M305.985,370.523c2.1-1.833,3-2.73,5.428-4.919,4.083-3.679,8.517-6.2,9.856-11.883,1.907-8.08-.494-13.059-.208-20.98.17-4.76.346-5.989-1.121-10.941,0,0-.157-4.41,4.451-15.6,1.7-4.113,1.383-7.512-1.758-8.431,1.56-5.7-.954-7.753-3.7-7.62,1.315-4.438,2.072-8.479-2.3-10.384-.451-.2-1.589,1.161-2.995,4.34-.073-2.984-3.382-6.132-4.837-3.989-6.432,11.027-7.222,11.515-12.173,21.645-4.231,8.655-4.69,12.433-5.544,28.4-.23,4.291.267,14.064-8.578,19.333" fill="#ffbda7"/>
        <path id="Caminho_294" data-name="Caminho 294" d="M296.625,301.76a49.028,49.028,0,0,0-2.877,5.783,36.971,36.971,0,0,0-1.814,6.247,98.842,98.842,0,0,0-1.374,12.854c-.327,4.291-.055,8.618-1.066,12.671a17.142,17.142,0,0,1-6.987,10.182,15.911,15.911,0,0,0,5.037-4.06,17.93,17.93,0,0,0,3.019-5.826,28.623,28.623,0,0,0,1.084-6.465c.1-2.167.208-4.268.351-6.419.244-4.274.456-8.55,1.024-12.75a48.114,48.114,0,0,1,3.606-12.218" fill="#f0997a"/>
        <path id="Caminho_295" data-name="Caminho 295" d="M305.888,336.144c.263-4.758.2-6,2.115-10.792,0,0,.56-4.378-3.009-15.942-1.312-4.249-.694-7.607,2.519-8.237-1.033-5.82,1.659-7.634,4.378-7.252-.9-4.539-1.29-8.631,3.241-10.13.467-.154,1.476,1.3,2.585,4.6a5.735,5.735,0,0,1,2.238-3.717,19.214,19.214,0,0,1-1.02,5.477c2.743-.133,5.257,1.919,3.7,7.62,3.142.92,3.452,4.32,1.758,8.433-4.608,11.188-4.451,15.6-4.451,15.6,1.467,4.951,1.293,6.181,1.121,10.942-.283,7.92,2.115,12.9.208,20.98-1.339,5.68-4.933,9.429-9.789,12l-2.793,2.37a23.154,23.154,0,0,1-5.4-10.114c-1.922-8.863,2.167-13.921,2.605-21.834" fill="#f0997a"/>
        <path id="Caminho_296" data-name="Caminho 296" d="M421.363,243.747c23.23,5.306,32.9,14.423,32.9,43.31,0,19.735-14.4,80.442-25.206,108.64-5.419,14.136-12.9,20.713-35.211,15-18.1-4.629-72.256-31.488-79.464-39.763s21.241-22.3,29.775-18.423,48.025,11.453,48.025,11.453L405.415,298.2s-2.152-39.47,15.948-54.448" fill="#ffbda7"/>
        <path id="Caminho_297" data-name="Caminho 297" d="M323.585,377.645c-12.519-7.031-17.271-13.994-18.508-19.7-1.921-8.864,2.169-13.921,2.607-21.834.263-4.757.2-6,2.115-10.793,0,0,.559-4.38-3.009-15.943-1.312-4.247-.694-7.605,2.519-8.233-1.034-5.82,1.659-7.635,4.378-7.252-.9-4.539-1.29-8.632,3.241-10.132.465-.154,1.476,1.3,2.585,4.6.346-2.964,3.929-5.8,5.183-3.53,5.4,11.568,6.143,12.128,10.149,22.667,3.424,9,3.536,12.81,2.929,28.791-.164,4.295-2.839,11.952,6.382,16.231" fill="#ffbda7"/>
        <path id="Caminho_298" data-name="Caminho 298" d="M311.671,304.1c1.687,3.9,4.429,12.024,4.851,14.871s1.055,8.964,1.055,8.964a36.608,36.608,0,0,0,0-9.493c-.635-6.116-5.906-14.343-5.906-14.343" fill="#f0997a"/>
        <path id="Caminho_299" data-name="Caminho 299" d="M314.379,294.243c1.915,4.891,5.939,11.754,6.783,15.341a96.686,96.686,0,0,1,1.9,16.557,41.142,41.142,0,0,0-.844-17.085c-1.557-5.594-4.359-8.51-7.837-14.813" fill="#f0997a"/>
        <path id="Caminho_300" data-name="Caminho 300" d="M319.514,288.355c2.823,6.645,7.343,15.954,8.293,18.7s1.9,16.241,1.9,16.241.844-9.28,0-14.237-10.192-20.7-10.192-20.7" fill="#f0997a"/>
      </g>
    </g>
  </g>
</svg>
