<svg xmlns="http://www.w3.org/2000/svg" width="28" height="50" viewBox="0 0 28 50">
  <g id="Grupo_88" data-name="Grupo 88" transform="translate(-832 255.91)">
    <path id="Caminho_165" data-name="Caminho 165" d="M21.791,67.287l-.041,0v7.878a3.94,3.94,0,1,0,.041-7.88" transform="translate(824.251 -281.079)" fill="#268edd"/>
    <path id="Caminho_166" data-name="Caminho 166" d="M15.52,71.2a4.005,4.005,0,0,0,4,3.971h.011V67.29A3.97,3.97,0,0,0,15.52,71.2" transform="translate(826.471 -281.08)" fill="#439fe5"/>
    <path id="Caminho_161" data-name="Caminho 161" d="M14,.012v6.33A7.851,7.851,0,0,0,6.041,14.08,7.85,7.85,0,0,0,14,21.812V39.1c-.059.058-.1.094-.119.108C13.561,38.937-.044,27.318,0,13.7A13.91,13.91,0,0,1,14,.012" transform="translate(832 -255.915)" fill="#439fe5"/>
    <path id="Caminho_163" data-name="Caminho 163" d="M35.748,13.845c-.067,13.028-12.67,24.1-14,25.247V21.808a7.85,7.85,0,0,0,7.958-7.732A7.617,7.617,0,0,0,27.373,8.6a8.078,8.078,0,0,0-5.625-2.262V.008c.03,0,.06-.008.089-.008a13.862,13.862,0,0,1,13.91,13.845" transform="translate(824.252 -255.91)" fill="#268edd"/>
    <path id="Caminho_162" data-name="Caminho 162" d="M8.049,16.459a7.85,7.85,0,0,0,7.958,7.732V26.54A10.232,10.232,0,0,1,5.634,16.459,10.233,10.233,0,0,1,16.007,6.372V8.721a7.851,7.851,0,0,0-7.958,7.739" transform="translate(829.993 -258.294)" fill="#268edd"/>
    <path id="Caminho_164" data-name="Caminho 164" d="M32.122,16.459a9.887,9.887,0,0,1-3.04,7.125,10.474,10.474,0,0,1-7.334,2.956V24.191a7.85,7.85,0,0,0,7.958-7.732,7.616,7.616,0,0,0-2.334-5.477,8.076,8.076,0,0,0-5.625-2.262V6.372A10.234,10.234,0,0,1,32.122,16.459" transform="translate(824.252 -258.294)" fill="#439fe5"/>
  </g>
</svg>
