<svg id="Grupo_55" data-name="Grupo 55" xmlns="http://www.w3.org/2000/svg" xmlns:xlink="http://www.w3.org/1999/xlink" width="197.88" height="50" viewBox="0 0 197.88 50">
  <defs>
    <clipPath id="clip-path">
      <rect id="Retângulo_31" data-name="Retângulo 31" width="197.88" height="50" fill="none"/>
    </clipPath>
  </defs>
  <path id="Caminho_142" data-name="Caminho 142" d="M182.074,38.769l-2.431,4.341h-2.431l-2.431-4.341v6.773h-3.126V33.386h3.3l3.473,6.425,3.473-6.425h3.3V45.542h-3.126Z" transform="translate(-93.209 -18.129)" fill="#1a5610"/>
  <path id="Caminho_143" data-name="Caminho 143" d="M205.44,45.542h-3.386l4.6-12.156h3.473l4.6,12.156h-3.386l-.781-2.171h-4.341ZM207,41.113h2.779l-1.389-4.081Z" transform="translate(-109.716 -18.129)" fill="#1a5610"/>
  <g id="Grupo_56" data-name="Grupo 56">
    <g id="Grupo_55-2" data-name="Grupo 55" clip-path="url(#clip-path)">
      <path id="Caminho_144" data-name="Caminho 144" d="M238.758,45.368q-3.872.348-6.426.347a2.863,2.863,0,0,1-3.3-3.3V36.859a3.628,3.628,0,0,1,.825-2.648,3.629,3.629,0,0,1,2.648-.825h6.252v2.431H233.2a.921.921,0,0,0-1.042,1.042v5.557a.855.855,0,0,0,.234.634.81.81,0,0,0,.6.234c.244,0,.51,0,.8-.008s.591-.014.9-.026l.946-.035q.478-.017,1.233-.069t1.884-.122Z" transform="translate(-124.366 -18.129)" fill="#1a5610"/>
      <path id="Caminho_145" data-name="Caminho 145" d="M260.029,33.386h3.126v8.857a3.63,3.63,0,0,1-.825,2.648,3.629,3.629,0,0,1-2.648.825h-3.994a3.631,3.631,0,0,1-2.649-.825,3.628,3.628,0,0,1-.824-2.648V33.386h3.125v8.857a.921.921,0,0,0,1.042,1.041h2.6a.921.921,0,0,0,1.042-1.041Z" transform="translate(-136.953 -18.129)" fill="#1a5610"/>
      <path id="Caminho_146" data-name="Caminho 146" d="M289.993,38.769l-2.431,4.341h-2.431L282.7,38.769v6.773h-3.126V33.386h3.3l3.473,6.425,3.473-6.425h3.3V45.542h-3.126Z" transform="translate(-151.809 -18.129)" fill="#1a5610"/>
      <path id="Caminho_147" data-name="Caminho 147" d="M312.633,33.386h6.946a3.489,3.489,0,0,1,2.5.772,3.139,3.139,0,0,1,.8,2.354,2.912,2.912,0,0,1-.452,1.693,2.437,2.437,0,0,1-1.111.912,2.689,2.689,0,0,1,1.91,1.875,4.084,4.084,0,0,1,.174,1.251,2.863,2.863,0,0,1-3.3,3.3h-7.467Zm7.12,3.473a.921.921,0,0,0-1.042-1.042h-2.952v2.431h2.952a.921.921,0,0,0,1.042-1.042Zm.521,4.862a.921.921,0,0,0-1.042-1.041h-3.473V43.11h3.473a.921.921,0,0,0,1.042-1.041Z" transform="translate(-169.761 -18.129)" fill="#1a5610"/>
      <path id="Caminho_148" data-name="Caminho 148" d="M339.2,45.542h-3.386l4.6-12.156h3.473l4.6,12.156H345.1l-.781-2.171h-4.341Zm1.563-4.428h2.779l-1.389-4.081Z" transform="translate(-182.348 -18.129)" fill="#1a5610"/>
      <path id="Caminho_149" data-name="Caminho 149" d="M373.951,41.394h-9.638V29.238h9.638v2.431h-6.512v2.344h5.123v2.431h-5.123v2.518h6.512ZM365.824,28.7l2.084-2.952h2.431l2.084,2.952h-2.171l-1.129-1.389L367.995,28.7Z" transform="translate(-197.823 -13.981)" fill="#1a5610"/>
      <path id="Caminho_150" data-name="Caminho 150" d="M387.27,41.895l-.348-3.646V33.386h3.126v4.862l-.348,3.646Zm-.348,1.042h3.126v2.6h-3.126Z" transform="translate(-210.1 -18.129)" fill="#1a5610"/>
    </g>
  </g>
  <path id="Caminho_151" data-name="Caminho 151" d="M182.943,74.349h-2.36l-.536,1.461h-.46l1.967-5.2h.418l1.968,5.2h-.457Zm-2.224-.371H182.8l-1.043-2.831Z" transform="translate(-97.516 -38.342)" fill="#1a5610"/>
  <path id="Caminho_152" data-name="Caminho 152" d="M193.6,70.611l1.917,4.588,1.924-4.588h.586v5.2h-.439V73.545l.036-2.321-1.935,4.584h-.339l-1.928-4.566.036,2.289v2.278h-.439v-5.2Z" transform="translate(-104.812 -38.342)" fill="#1a5610"/>
  <g id="Grupo_58" data-name="Grupo 58">
    <g id="Grupo_57" data-name="Grupo 57" clip-path="url(#clip-path)">
      <path id="Caminho_153" data-name="Caminho 153" d="M212.7,73.407a3.011,3.011,0,0,1-.248,1.26,1.89,1.89,0,0,1-.709.835,1.941,1.941,0,0,1-1.064.293,1.848,1.848,0,0,1-1.471-.652,2.6,2.6,0,0,1-.56-1.759V72.85a2.979,2.979,0,0,1,.252-1.259,1.87,1.87,0,0,1,1.772-1.137,1.944,1.944,0,0,1,1.059.289,1.908,1.908,0,0,1,.709.818,2.95,2.95,0,0,1,.26,1.225Zm-.439-.564a2.3,2.3,0,0,0-.425-1.471,1.528,1.528,0,0,0-2.319,0,2.315,2.315,0,0,0-.43,1.491v.542a2.3,2.3,0,0,0,.428,1.466,1.529,1.529,0,0,0,2.328.007,2.359,2.359,0,0,0,.418-1.487Z" transform="translate(-113.295 -38.257)" fill="#1a5610"/>
      <path id="Caminho_154" data-name="Caminho 154" d="M224.1,73.642h-1.51v2.168h-.443v-5.2h1.689a1.928,1.928,0,0,1,1.3.4,1.537,1.537,0,0,1,.175,2.008,1.5,1.5,0,0,1-.786.527l1.3,2.214v.047h-.468Zm-1.51-.371h1.346a1.249,1.249,0,0,0,.889-.314,1.189,1.189,0,0,0-.015-1.67,1.45,1.45,0,0,0-.982-.3h-1.239Z" transform="translate(-120.629 -38.342)" fill="#1a5610"/>
      <rect id="Retângulo_32" data-name="Retângulo 32" width="0.361" height="6.162" transform="translate(109.978 32.269)" fill="#1a5610"/>
      <path id="Caminho_155" data-name="Caminho 155" d="M256.059,74.1a1.866,1.866,0,0,1-.587,1.257,1.942,1.942,0,0,1-1.326.436,1.834,1.834,0,0,1-1.023-.289,1.885,1.885,0,0,1-.687-.819,2.917,2.917,0,0,1-.246-1.212V72.8a2.939,2.939,0,0,1,.243-1.228,1.866,1.866,0,0,1,.7-.827,1.9,1.9,0,0,1,1.048-.291,1.863,1.863,0,0,1,1.319.45,1.887,1.887,0,0,1,.562,1.246h-.443a1.323,1.323,0,0,0-1.439-1.325,1.364,1.364,0,0,0-1.126.529,2.294,2.294,0,0,0-.42,1.462v.636a2.308,2.308,0,0,0,.409,1.436,1.316,1.316,0,0,0,1.105.536,1.464,1.464,0,0,0,1.039-.33,1.583,1.583,0,0,0,.432-.991Z" transform="translate(-136.939 -38.257)" fill="#1a5610"/>
      <path id="Caminho_156" data-name="Caminho 156" d="M267.386,74.349h-2.36l-.536,1.461h-.461l1.967-5.2h.418l1.967,5.2h-.457Zm-2.224-.371h2.085L266.2,71.147Z" transform="translate(-143.369 -38.342)" fill="#1a5610"/>
      <path id="Caminho_157" data-name="Caminho 157" d="M279.4,73.642h-1.51v2.168h-.443v-5.2h1.689a1.927,1.927,0,0,1,1.3.4,1.537,1.537,0,0,1,.175,2.008,1.5,1.5,0,0,1-.786.527l1.3,2.214v.047h-.467Zm-1.51-.371h1.346a1.248,1.248,0,0,0,.889-.314,1.189,1.189,0,0,0-.015-1.67,1.45,1.45,0,0,0-.982-.3h-1.239Z" transform="translate(-150.652 -38.342)" fill="#1a5610"/>
      <rect id="Retângulo_33" data-name="Retângulo 33" width="0.439" height="5.198" transform="translate(132.562 32.269)" fill="#1a5610"/>
      <path id="Caminho_158" data-name="Caminho 158" d="M296.36,75.809v-5.2h1.453a2.262,2.262,0,0,1,1.146.291,2.013,2.013,0,0,1,.791.834,2.628,2.628,0,0,1,.284,1.236v.478a2.63,2.63,0,0,1-.282,1.236,2.01,2.01,0,0,1-.794.832,2.331,2.331,0,0,1-1.177.293Zm.439-4.827v4.456h.985a1.7,1.7,0,0,0,1.318-.545,2.107,2.107,0,0,0,.5-1.474v-.457a2.059,2.059,0,0,0-.489-1.437,1.668,1.668,0,0,0-1.289-.543Z" transform="translate(-160.924 -38.342)" fill="#1a5610"/>
      <path id="Caminho_159" data-name="Caminho 159" d="M311.229,74.349h-2.36l-.536,1.461h-.461l1.967-5.2h.418l1.967,5.2h-.457ZM309,73.978h2.085l-1.042-2.831Z" transform="translate(-167.176 -38.342)" fill="#1a5610"/>
      <path id="Caminho_160" data-name="Caminho 160" d="M321.308,75.809v-5.2h1.453a2.258,2.258,0,0,1,1.146.291,2.01,2.01,0,0,1,.791.834,2.627,2.627,0,0,1,.284,1.236v.478a2.63,2.63,0,0,1-.282,1.236,2.007,2.007,0,0,1-.794.832,2.33,2.33,0,0,1-1.177.293Zm.44-4.827v4.456h.985a1.7,1.7,0,0,0,1.318-.545,2.107,2.107,0,0,0,.5-1.474v-.457a2.057,2.057,0,0,0-.489-1.437,1.668,1.668,0,0,0-1.289-.543Z" transform="translate(-174.471 -38.342)" fill="#1a5610"/>
      <path id="Caminho_161" data-name="Caminho 161" d="M336.9,73.317h-2.431v2.121h2.8v.371h-3.235v-5.2h3.217v.372h-2.778v1.964H336.9Z" transform="translate(-181.377 -38.342)" fill="#1a5610"/>
      <rect id="Retângulo_34" data-name="Retângulo 34" width="0.361" height="6.162" transform="translate(160.611 32.269)" fill="#1a5610"/>
      <path id="Caminho_162" data-name="Caminho 162" d="M366.263,73.377h-2.424v2.431H363.4v-5.2h3.22v.372h-2.781v2.024h2.424Z" transform="translate(-197.327 -38.342)" fill="#1a5610"/>
      <path id="Caminho_163" data-name="Caminho 163" d="M377.51,71.616h-2.431v2.12h2.8v.372H374.64v-5.2h3.217v.371h-2.778v1.964h2.431Zm-.889-4.138h.518l-.825,1-.375,0Z" transform="translate(-203.431 -36.641)" fill="#1a5610"/>
      <path id="Caminho_164" data-name="Caminho 164" d="M16.249,49.643H8.911A8.921,8.921,0,0,1,0,40.731V12.4A8.921,8.921,0,0,1,8.911,3.486h7.338a1.6,1.6,0,1,1,0,3.2H8.911A5.719,5.719,0,0,0,3.2,12.4V40.731a5.719,5.719,0,0,0,5.712,5.712h7.338a1.6,1.6,0,1,1,0,3.2" transform="translate(0 -1.893)" fill="#1a5610"/>
      <path id="Caminho_165" data-name="Caminho 165" d="M264.035,49.643H139.843a1.6,1.6,0,0,1,0-3.2H264.035a5.719,5.719,0,0,0,5.712-5.712V12.4a5.719,5.719,0,0,0-5.712-5.712H139.843a1.6,1.6,0,0,1,0-3.2H264.035a8.922,8.922,0,0,1,8.911,8.911V40.731a8.922,8.922,0,0,1-8.911,8.911" transform="translate(-75.067 -1.893)" fill="#1a5610"/>
      <path id="Caminho_166" data-name="Caminho 166" d="M110.446,37.751V28.2a3.125,3.125,0,1,1,6.25,0v14.15a12.5,12.5,0,0,1-6.909,11.18L104.2,56.323v6.25H93.154v-13.6a5.145,5.145,0,0,1,4.631-5.119c.012,0,4.775-.733,7.07-3.028l2.34-2.338a3.124,3.124,0,0,1,3.251-.738" transform="translate(-50.583 -13.615)" fill="#fce8d0"/>
      <path id="Caminho_167" data-name="Caminho 167" d="M78.218,2.279c5.707,0,7.694,5.255,7.694,8.333,0,6.25-5.137,9.8-14.251,17.708-9.115-7.907-14.252-11.458-14.252-17.708,0-3.078,1.988-8.333,7.695-8.333,3.5,0,5.444,2.557,6.557,4.592,1.113-2.035,3.054-4.592,6.557-4.592" transform="translate(-31.173 -1.238)" fill="#2ab54e"/>
      <path id="Caminho_168" data-name="Caminho 168" d="M38.773,37.751a3.124,3.124,0,0,1,3.251.738l2.34,2.338c2.248,2.249,7.059,3.024,7.07,3.028a5.144,5.144,0,0,1,4.631,5.119v13.6H45.023v-6.25l-5.591-2.795a12.5,12.5,0,0,1-6.909-11.18V28.2a3.125,3.125,0,1,1,6.25,0Z" transform="translate(-17.66 -13.615)" fill="#fce8d0"/>
      <path id="Caminho_169" data-name="Caminho 169" d="M85.717,9.374C85.717,5.749,83.345,0,76.98,0a7.84,7.84,0,0,0-6.557,3.67A7.84,7.84,0,0,0,63.866,0C57.5,0,55.13,5.749,55.13,9.374c0,6.249,4.877,10.159,11.54,15.856.979.837,1.991,1.7,3.071,2.639a1.041,1.041,0,0,0,1.365,0c1.08-.936,2.092-1.8,3.071-2.639,6.976-5.965,11.54-9.739,11.54-15.856M70.423,25.705c-.832-.718-1.626-1.4-2.4-2.058C61.053,17.686,57.213,14.4,57.213,9.374c0-3.411,2.231-7.292,6.653-7.292,2.307,0,4.153,1.325,5.643,4.051a1.042,1.042,0,0,0,1.828,0c1.49-2.726,3.336-4.051,5.643-4.051,4.36,0,6.653,3.823,6.653,7.292,0,5.028-3.839,8.312-10.811,14.272-.773.661-1.567,1.34-2.4,2.058" transform="translate(-29.936 0.001)" fill="#1a5610"/>
      <path id="Caminho_170" data-name="Caminho 170" d="M37.729,53.223l5.015,2.507v5.606a1.042,1.042,0,0,0,1.041,1.041H54.826a1.042,1.042,0,0,0,1.042-1.041v-13.6a6.165,6.165,0,0,0-5.561-6.155l-.085-.01a13.233,13.233,0,0,1-6.36-2.719l-2.339-2.338a4.141,4.141,0,0,0-2.946-1.221V26.96a4.167,4.167,0,0,0-8.333,0V41.11a13.542,13.542,0,0,0,7.486,12.112m-5.4-26.262a2.083,2.083,0,0,1,4.167,0v8.892a4.166,4.166,0,0,0-.863,6.554l5.334,5.335a1.042,1.042,0,1,0,1.473-1.473L37.1,40.933a2.083,2.083,0,0,1,.778-3.437h0a2.08,2.08,0,0,1,2.166.492l2.34,2.339c2.415,2.415,7.692,3.324,7.7,3.326a4.091,4.091,0,0,1,3.693,4.083V60.294H44.827V55.085a1.041,1.041,0,0,0-.576-.931l-5.59-2.795A11.4,11.4,0,0,1,32.326,41.11Z" transform="translate(-16.422 -12.377)" fill="#1a5610"/>
      <path id="Caminho_171" data-name="Caminho 171" d="M134.67,82.643a1.042,1.042,0,1,1-1.041-1.042,1.042,1.042,0,0,1,1.041,1.042" transform="translate(-71.995 -44.31)" fill="#1a5610"/>
      <path id="Caminho_172" data-name="Caminho 172" d="M112.333,22.794a4.171,4.171,0,0,0-4.166,4.166v8.334a4.14,4.14,0,0,0-2.946,1.22l-2.339,2.338a13.238,13.238,0,0,1-6.368,2.72l-.069.007a6.168,6.168,0,0,0-5.569,6.156v13.6a1.042,1.042,0,0,0,1.041,1.041h11.042A1.042,1.042,0,0,0,104,61.336V55.73l3.41-1.7a1.042,1.042,0,0,0-.932-1.863l-3.985,1.992a1.041,1.041,0,0,0-.575.932v5.208H92.958V47.736a4.093,4.093,0,0,1,3.7-4.084l.069-.007a15.308,15.308,0,0,0,7.626-3.318l2.339-2.338a2.079,2.079,0,0,1,2.166-.493h0a2.083,2.083,0,0,1,.778,3.438L104.3,46.269a1.042,1.042,0,0,0,1.474,1.473l5.334-5.335a4.166,4.166,0,0,0-.863-6.555V26.96a2.083,2.083,0,0,1,4.167,0V41.11a11.486,11.486,0,0,1-1.391,5.472,1.042,1.042,0,1,0,1.831.995A13.581,13.581,0,0,0,116.5,41.11V26.96a4.171,4.171,0,0,0-4.167-4.166" transform="translate(-49.345 -12.377)" fill="#1a5610"/>
    </g>
  </g>
</svg>
